<svg xmlns="http://www.w3.org/2000/svg" xmlns:xlink="http://www.w3.org/1999/xlink" contentStyleType="text/css" data-diagram-type="CLASS" height="385px" preserveAspectRatio="none" style="width:749px;height:385px;background:#FFFFFF;" version="1.1" viewBox="0 0 749 385" width="749px" zoomAndPan="magnify"><?plantuml 1.2026.4beta2?><defs/><g><!--class IMessageBuilder--><g class="entity" data-qualified-name="IMessageBuilder" data-source-line="3" id="ent0002"><rect fill="#F1F1F1" height="129.4844" rx="3.5" ry="3.5" style="stroke:#181818;stroke-width:0.5;" width="327.5332" x="244.13" y="241"/><ellipse cx="314.1842" cy="257" fill="#B4A7E5" rx="11" ry="11" style="stroke:#181818;stroke-width:1;"/><path d="M310.1061,252.7656 L310.1061,250.6094 L317.4967,250.6094 L317.4967,252.7656 L315.0279,252.7656 L315.0279,260.8438 L317.4967,260.8438 L317.4967,263 L310.1061,263 L310.1061,260.8438 L312.5748,260.8438 L312.5748,252.7656 L310.1061,252.7656 Z " fill="#000000"/><text fill="#000000" font-family="sans-serif" font-size="14" font-style="italic" lengthAdjust="spacing" textLength="115.001" x="334.6842" y="261.8467">IMessageBuilder</text><rect fill="#FFFFFF" height="15.9688" style="stroke:#181818;stroke-width:1;stroke-dasharray:2,2;" width="61.9238" x="512.7394" y="238"/><text fill="#000000" font-family="sans-serif" font-size="12" font-style="italic" lengthAdjust="spacing" textLength="59.9238" x="513.7394" y="250.1387">TMessage</text><line style="stroke:#181818;stroke-width:0.5;" x1="245.13" x2="570.6632" y1="273" y2="273"/><line style="stroke:#181818;stroke-width:0.5;" x1="245.13" x2="570.6632" y1="281" y2="281"/><g data-visibility-modifier="PUBLIC_METHOD"><ellipse cx="255.13" cy="294.6484" fill="#84BE84" rx="3" ry="3" style="stroke:#038048;stroke-width:1;"/></g><text fill="#000000" font-family="sans-serif" font-size="14" lengthAdjust="spacing" textLength="301.5332" x="264.13" y="297.9951">AddressedTo(recipient:string):EmailBuilder</text><g data-visibility-modifier="PUBLIC_METHOD"><ellipse cx="255.13" cy="310.9453" fill="#84BE84" rx="3" ry="3" style="stroke:#038048;stroke-width:1;"/></g><text fill="#000000" font-family="sans-serif" font-size="14" lengthAdjust="spacing" textLength="232.9482" x="264.13" y="314.292">From(sender:string):EmailBuilder</text><g data-visibility-modifier="PUBLIC_METHOD"><ellipse cx="255.13" cy="327.2422" fill="#84BE84" rx="3" ry="3" style="stroke:#038048;stroke-width:1;"/></g><text fill="#000000" font-family="sans-serif" font-size="14" lengthAdjust="spacing" textLength="250.9609" x="264.13" y="330.5889">WithBody(body:string):EmailBuilder</text><g data-visibility-modifier="PUBLIC_METHOD"><ellipse cx="255.13" cy="343.5391" fill="#84BE84" rx="3" ry="3" style="stroke:#038048;stroke-width:1;"/></g><text fill="#000000" font-family="sans-serif" font-size="14" lengthAdjust="spacing" textLength="284.0742" x="264.13" y="346.8857">WithSubject(subject:string):EmailBuilder</text><g data-visibility-modifier="PUBLIC_METHOD"><ellipse cx="255.13" cy="359.8359" fill="#84BE84" rx="3" ry="3" style="stroke:#038048;stroke-width:1;"/></g><text fill="#000000" font-family="sans-serif" font-size="14" lengthAdjust="spacing" textLength="161.6836" x="264.13" y="363.1826">GetResults():TMessage</text></g><!--class EmailBuilder--><g class="entity" data-qualified-name="EmailBuilder" data-source-line="11" id="ent0003"><rect fill="#F1F1F1" height="48" rx="3.5" ry="3.5" style="stroke:#181818;stroke-width:0.5;" width="201.3232" x="203.24" y="132"/><ellipse cx="218.24" cy="148" fill="#ADD1B2" rx="11" ry="11" style="stroke:#181818;stroke-width:1;"/><path d="M221.2088,153.6406 Q220.6306,153.9375 219.99,154.0781 Q219.3494,154.2344 218.6463,154.2344 Q216.1463,154.2344 214.8181,152.5938 Q213.5056,150.9375 213.5056,147.8125 Q213.5056,144.6875 214.8181,143.0313 Q216.1463,141.375 218.6463,141.375 Q219.3494,141.375 219.99,141.5313 Q220.6463,141.6875 221.2088,141.9844 L221.2088,144.7031 Q220.5838,144.125 219.99,143.8594 Q219.3963,143.5781 218.7713,143.5781 Q217.4275,143.5781 216.74,144.6563 Q216.0525,145.7188 216.0525,147.8125 Q216.0525,149.9063 216.74,150.9844 Q217.4275,152.0469 218.7713,152.0469 Q219.3963,152.0469 219.99,151.7813 Q220.5838,151.5 221.2088,150.9219 L221.2088,153.6406 Z " fill="#000000"/><text fill="#000000" font-family="sans-serif" font-size="14" lengthAdjust="spacing" textLength="88.3545" x="232.24" y="152.8467">EmailBuilder</text><rect fill="#FFFFFF" height="15.9688" style="stroke:#181818;stroke-width:1;stroke-dasharray:2,2;" width="78.9688" x="328.5945" y="129"/><text fill="#000000" font-family="sans-serif" font-size="12" font-style="italic" lengthAdjust="spacing" textLength="76.9688" x="329.5945" y="141.1387">MailMessage</text><line style="stroke:#181818;stroke-width:0.5;" x1="204.24" x2="403.5632" y1="164" y2="164"/><line style="stroke:#181818;stroke-width:0.5;" x1="204.24" x2="403.5632" y1="172" y2="172"/></g><!--class MailMessage--><g class="entity" data-qualified-name="MailMessage" data-source-line="13" id="ent0005"><rect fill="#F1F1F1" height="48" rx="3.5" ry="3.5" style="stroke:#181818;stroke-width:0.5;" width="121.7969" x="7" y="132"/><ellipse cx="22" cy="148" fill="#ADD1B2" rx="11" ry="11" style="stroke:#181818;stroke-width:1;"/><path d="M24.9688,153.6406 Q24.3906,153.9375 23.75,154.0781 Q23.1094,154.2344 22.4063,154.2344 Q19.9063,154.2344 18.5781,152.5938 Q17.2656,150.9375 17.2656,147.8125 Q17.2656,144.6875 18.5781,143.0313 Q19.9063,141.375 22.4063,141.375 Q23.1094,141.375 23.75,141.5313 Q24.4063,141.6875 24.9688,141.9844 L24.9688,144.7031 Q24.3438,144.125 23.75,143.8594 Q23.1563,143.5781 22.5313,143.5781 Q21.1875,143.5781 20.5,144.6563 Q19.8125,145.7188 19.8125,147.8125 Q19.8125,149.9063 20.5,150.9844 Q21.1875,152.0469 22.5313,152.0469 Q23.1563,152.0469 23.75,151.7813 Q24.3438,151.5 24.9688,150.9219 L24.9688,153.6406 Z " fill="#000000"/><text fill="#000000" font-family="sans-serif" font-size="14" lengthAdjust="spacing" textLength="89.7969" x="36" y="152.8467">MailMessage</text><line style="stroke:#181818;stroke-width:0.5;" x1="8" x2="127.7969" y1="164" y2="164"/><line style="stroke:#181818;stroke-width:0.5;" x1="8" x2="127.7969" y1="172" y2="172"/></g><!--class JsonBuilder--><g class="entity" data-qualified-name="JsonBuilder" data-source-line="15" id="ent0008"><rect fill="#F1F1F1" height="48" rx="3.5" ry="3.5" style="stroke:#181818;stroke-width:0.5;" width="148.8213" x="439.49" y="132"/><ellipse cx="454.49" cy="148" fill="#ADD1B2" rx="11" ry="11" style="stroke:#181818;stroke-width:1;"/><path d="M457.4588,153.6406 Q456.8806,153.9375 456.24,154.0781 Q455.5994,154.2344 454.8963,154.2344 Q452.3963,154.2344 451.0681,152.5938 Q449.7556,150.9375 449.7556,147.8125 Q449.7556,144.6875 451.0681,143.0313 Q452.3963,141.375 454.8963,141.375 Q455.5994,141.375 456.24,141.5313 Q456.8963,141.6875 457.4588,141.9844 L457.4588,144.7031 Q456.8338,144.125 456.24,143.8594 Q455.6463,143.5781 455.0213,143.5781 Q453.6775,143.5781 452.99,144.6563 Q452.3025,145.7188 452.3025,147.8125 Q452.3025,149.9063 452.99,150.9844 Q453.6775,152.0469 455.0213,152.0469 Q455.6463,152.0469 456.24,151.7813 Q456.8338,151.5 457.4588,150.9219 L457.4588,153.6406 Z " fill="#000000"/><text fill="#000000" font-family="sans-serif" font-size="14" lengthAdjust="spacing" textLength="78.374" x="468.49" y="152.8467">JsonBuilder</text><rect fill="#FFFFFF" height="15.9688" style="stroke:#181818;stroke-width:1;stroke-dasharray:2,2;" width="36.4473" x="554.864" y="129"/><text fill="#000000" font-family="sans-serif" font-size="12" font-style="italic" lengthAdjust="spacing" textLength="34.4473" x="555.864" y="141.1387">string</text><line style="stroke:#181818;stroke-width:0.5;" x1="440.49" x2="587.3113" y1="164" y2="164"/><line style="stroke:#181818;stroke-width:0.5;" x1="440.49" x2="587.3113" y1="172" y2="172"/></g><!--class string--><g class="entity" data-qualified-name="string" data-source-line="17" id="ent0010"><rect fill="#F1F1F1" height="48" rx="3.5" ry="3.5" style="stroke:#181818;stroke-width:0.5;" width="72.1885" x="662.8" y="132"/><ellipse cx="677.8" cy="148" fill="#ADD1B2" rx="11" ry="11" style="stroke:#181818;stroke-width:1;"/><path d="M680.7688,153.6406 Q680.1906,153.9375 679.55,154.0781 Q678.9094,154.2344 678.2063,154.2344 Q675.7063,154.2344 674.3781,152.5938 Q673.0656,150.9375 673.0656,147.8125 Q673.0656,144.6875 674.3781,143.0313 Q675.7063,141.375 678.2063,141.375 Q678.9094,141.375 679.55,141.5313 Q680.2063,141.6875 680.7688,141.9844 L680.7688,144.7031 Q680.1438,144.125 679.55,143.8594 Q678.9563,143.5781 678.3313,143.5781 Q676.9875,143.5781 676.3,144.6563 Q675.6125,145.7188 675.6125,147.8125 Q675.6125,149.9063 676.3,150.9844 Q676.9875,152.0469 678.3313,152.0469 Q678.9563,152.0469 679.55,151.7813 Q680.1438,151.5 680.7688,150.9219 L680.7688,153.6406 Z " fill="#000000"/><text fill="#000000" font-family="sans-serif" font-size="14" lengthAdjust="spacing" textLength="40.1885" x="691.8" y="152.8467">string</text><line style="stroke:#181818;stroke-width:0.5;" x1="663.8" x2="733.9885" y1="164" y2="164"/><line style="stroke:#181818;stroke-width:0.5;" x1="663.8" x2="733.9885" y1="172" y2="172"/></g><!--class Client--><g class="entity" data-qualified-name="Client" data-source-line="19" id="ent0012"><rect fill="#98FB98" height="48" rx="3.5" ry="3.5" style="stroke:#181818;stroke-width:0.5;" width="72.5303" x="371.63" y="7"/><ellipse cx="386.63" cy="23" fill="#ADD1B2" rx="11" ry="11" style="stroke:#181818;stroke-width:1;"/><path d="M389.5988,28.6406 Q389.0206,28.9375 388.38,29.0781 Q387.7394,29.2344 387.0363,29.2344 Q384.5363,29.2344 383.2081,27.5938 Q381.8956,25.9375 381.8956,22.8125 Q381.8956,19.6875 383.2081,18.0313 Q384.5363,16.375 387.0363,16.375 Q387.7394,16.375 388.38,16.5313 Q389.0363,16.6875 389.5988,16.9844 L389.5988,19.7031 Q388.9738,19.125 388.38,18.8594 Q387.7863,18.5781 387.1613,18.5781 Q385.8175,18.5781 385.13,19.6563 Q384.4425,20.7188 384.4425,22.8125 Q384.4425,24.9063 385.13,25.9844 Q385.8175,27.0469 387.1613,27.0469 Q387.7863,27.0469 388.38,26.7813 Q388.9738,26.5 389.5988,25.9219 L389.5988,28.6406 Z " fill="#000000"/><text fill="#000000" font-family="sans-serif" font-size="14" lengthAdjust="spacing" textLength="40.5303" x="400.63" y="27.8467">Client</text><line style="stroke:#181818;stroke-width:0.5;" x1="372.63" x2="443.1603" y1="39" y2="39"/><line style="stroke:#181818;stroke-width:0.5;" x1="372.63" x2="443.1603" y1="47" y2="47"/></g><!--link EmailBuilder to IMessageBuilder--><g class="link" data-entity-1="ent0003" data-entity-2="ent0002" data-link-type="extension" data-source-line="12" id="lnk4"><path codeLine="12" d="M320.38,180.41 C331.83,196.68 337.3281,204.4916 352.4081,225.9116" fill="none" id="EmailBuilder-to-IMessageBuilder" style="stroke:#454645;stroke-width:1;stroke-dasharray:7,7;"/><polygon fill="none" points="362.77,240.63,357.3142,222.4577,347.5019,229.3656,362.77,240.63" style="stroke:#454645;stroke-width:1;"/></g><!--reverse link MailMessage to EmailBuilder--><g class="link" data-entity-1="ent0005" data-entity-2="ent0003" data-link-type="dependency" data-source-line="13" id="lnk7"><path codeLine="13" d="M135.29,156 C157.82,156 177.97,156 203.06,156" fill="none" id="MailMessage-backto-EmailBuilder" style="stroke:#454645;stroke-width:1;"/><polygon fill="#454645" points="129.29,156,138.29,160,134.29,156,138.29,152,129.29,156" style="stroke:#454645;stroke-width:1;"/><text fill="#000000" font-family="sans-serif" font-size="13" lengthAdjust="spacing" textLength="38.7397" x="147.02" y="149.0669">builds</text></g><!--link JsonBuilder to IMessageBuilder--><g class="link" data-entity-1="ent0008" data-entity-2="ent0002" data-link-type="extension" data-source-line="16" id="lnk9"><path codeLine="16" d="M497.1,180.41 C485.43,196.68 479.7494,204.5822 464.3894,226.0022" fill="none" id="JsonBuilder-to-IMessageBuilder" style="stroke:#454645;stroke-width:1;stroke-dasharray:7,7;"/><polygon fill="none" points="453.9,240.63,469.2653,229.4987,459.5135,222.5057,453.9,240.63" style="stroke:#454645;stroke-width:1;"/></g><!--link JsonBuilder to string--><g class="link" data-entity-1="ent0008" data-entity-2="ent0010" data-link-type="dependency" data-source-line="17" id="lnk11"><path codeLine="17" d="M588.61,156 C614.08,156 635.42,156 656.51,156" fill="none" id="JsonBuilder-to-string" style="stroke:#454645;stroke-width:1;"/><polygon fill="#454645" points="662.51,156,653.51,152,657.51,156,653.51,160,662.51,156" style="stroke:#454645;stroke-width:1;"/><text fill="#000000" font-family="sans-serif" font-size="13" lengthAdjust="spacing" textLength="38.7397" x="606.56" y="149.0669">builds</text></g><!--link Client to EmailBuilder--><g class="link" data-entity-1="ent0012" data-entity-2="ent0003" data-link-type="dependency" data-source-line="21" id="lnk13"><path codeLine="21" d="M388.09,55.42 C369.59,77.31 345.9836,105.2179 327.5036,127.0779" fill="none" id="Client-to-EmailBuilder" style="stroke:#454645;stroke-width:1;"/><polygon fill="#454645" points="323.63,131.66,332.4951,127.3693,326.858,127.8416,326.3857,122.2045,323.63,131.66" style="stroke:#454645;stroke-width:1;"/><text fill="#000000" font-family="sans-serif" font-size="13" lengthAdjust="spacing" textLength="29.1104" x="363.9" y="98.0669">calls</text></g><!--link Client to JsonBuilder--><g class="link" data-entity-1="ent0012" data-entity-2="ent0008" data-link-type="dependency" data-source-line="22" id="lnk14"><path codeLine="22" d="M428.09,55.42 C446.95,77.31 471.0329,105.255 489.8729,127.115" fill="none" id="Client-to-JsonBuilder" style="stroke:#454645;stroke-width:1;"/><polygon fill="#454645" points="493.79,131.66,490.9444,122.2312,490.5258,127.8725,484.8844,127.4539,493.79,131.66" style="stroke:#454645;stroke-width:1;"/><text fill="#000000" font-family="sans-serif" font-size="13" lengthAdjust="spacing" textLength="29.1104" x="467.9" y="98.0669">calls</text></g><?plantuml-src VL11QiCm4BplArHoKGZE0qGmD2Kj3UJI1dgMfOsj8ij1kowKjd-lZ6rGsgONIRCpixFQ6swmHV7cggW30xZ064_Qe7Wy896kSTixRp5kZXCknGUiRgsD2Q8zTZAYSMU7WHLnTA5UgbshdPzyiBgFNIi9Gm9N52-EcsrdtsMLZdyqpttrYeObZVSLvGFo4rBlcUHIpLF35u3ncaZauiqXlUT_GSw8zVgp_Bc3IqNXySH5AR8UGebgO6aEsrCNvgnnsXAosjyfkQ28hcw6bD7zA-3E3viNYxFsM4V4032LYcIwc5S9exsddC-J9leR?></g></svg>