<svg xmlns="http://www.w3.org/2000/svg" xmlns:xlink="http://www.w3.org/1999/xlink" contentStyleType="text/css" data-diagram-type="CLASS" height="602px" preserveAspectRatio="none" style="width:729px;height:602px;background:#FFFFFF;" version="1.1" viewBox="0 0 729 602" width="729px" zoomAndPan="magnify"><?plantuml 1.2026.4beta2?><defs/><g><!--class IDbFactory--><g class="entity" data-qualified-name="IDbFactory" data-source-line="3" id="ent0002"><rect fill="#F1F1F1" height="96.8906" rx="3.5" ry="3.5" style="stroke:#181818;stroke-width:0.5;" width="182.6318" x="532.31" y="241"/><ellipse cx="581.2656" cy="257" fill="#B4A7E5" rx="11" ry="11" style="stroke:#181818;stroke-width:1;"/><path d="M577.1874,252.7656 L577.1874,250.6094 L584.5781,250.6094 L584.5781,252.7656 L582.1093,252.7656 L582.1093,260.8438 L584.5781,260.8438 L584.5781,263 L577.1874,263 L577.1874,260.8438 L579.6562,260.8438 L579.6562,252.7656 L577.1874,252.7656 Z " fill="#000000"/><text fill="#000000" font-family="sans-serif" font-size="14" font-style="italic" lengthAdjust="spacing" textLength="76.2207" x="601.7656" y="261.8467">IDbFactory</text><line style="stroke:#181818;stroke-width:0.5;" x1="533.31" x2="713.9418" y1="273" y2="273"/><line style="stroke:#181818;stroke-width:0.5;" x1="533.31" x2="713.9418" y1="281" y2="281"/><g data-visibility-modifier="PUBLIC_METHOD"><ellipse cx="543.31" cy="294.6484" fill="#84BE84" rx="3" ry="3" style="stroke:#038048;stroke-width:1;"/></g><text fill="#000000" font-family="sans-serif" font-size="14" lengthAdjust="spacing" textLength="156.6318" x="552.31" y="297.9951">CreateDbConnection()</text><g data-visibility-modifier="PUBLIC_METHOD"><ellipse cx="543.31" cy="310.9453" fill="#84BE84" rx="3" ry="3" style="stroke:#038048;stroke-width:1;"/></g><text fill="#000000" font-family="sans-serif" font-size="14" lengthAdjust="spacing" textLength="149.3721" x="552.31" y="314.292">CreateDbCommand()</text><g data-visibility-modifier="PUBLIC_METHOD"><ellipse cx="543.31" cy="327.2422" fill="#84BE84" rx="3" ry="3" style="stroke:#038048;stroke-width:1;"/></g><text fill="#000000" font-family="sans-serif" font-size="14" lengthAdjust="spacing" textLength="150.8828" x="552.31" y="330.5889">CreateDbParameter()</text></g><!--class IDbConnection--><g class="entity" data-qualified-name="IDbConnection" data-source-line="9" id="ent0003"><rect fill="#F1F1F1" height="48" rx="3.5" ry="3.5" style="stroke:#181818;stroke-width:0.5;" width="135.0107" x="35.12" y="265.44"/><ellipse cx="50.12" cy="281.44" fill="#B4A7E5" rx="11" ry="11" style="stroke:#181818;stroke-width:1;"/><path d="M46.0419,277.2056 L46.0419,275.0494 L53.4325,275.0494 L53.4325,277.2056 L50.9638,277.2056 L50.9638,285.2838 L53.4325,285.2838 L53.4325,287.44 L46.0419,287.44 L46.0419,285.2838 L48.5106,285.2838 L48.5106,277.2056 L46.0419,277.2056 Z " fill="#000000"/><text fill="#000000" font-family="sans-serif" font-size="14" font-style="italic" lengthAdjust="spacing" textLength="103.0107" x="64.12" y="286.2867">IDbConnection</text><line style="stroke:#181818;stroke-width:0.5;" x1="36.12" x2="169.1307" y1="297.44" y2="297.44"/><line style="stroke:#181818;stroke-width:0.5;" x1="36.12" x2="169.1307" y1="305.44" y2="305.44"/></g><!--class IDbCommand--><g class="entity" data-qualified-name="IDbCommand" data-source-line="10" id="ent0004"><rect fill="#F1F1F1" height="48" rx="3.5" ry="3.5" style="stroke:#181818;stroke-width:0.5;" width="127.751" x="204.75" y="265.44"/><ellipse cx="219.75" cy="281.44" fill="#B4A7E5" rx="11" ry="11" style="stroke:#181818;stroke-width:1;"/><path d="M215.6719,277.2056 L215.6719,275.0494 L223.0625,275.0494 L223.0625,277.2056 L220.5938,277.2056 L220.5938,285.2838 L223.0625,285.2838 L223.0625,287.44 L215.6719,287.44 L215.6719,285.2838 L218.1406,285.2838 L218.1406,277.2056 L215.6719,277.2056 Z " fill="#000000"/><text fill="#000000" font-family="sans-serif" font-size="14" font-style="italic" lengthAdjust="spacing" textLength="95.751" x="233.75" y="286.2867">IDbCommand</text><line style="stroke:#181818;stroke-width:0.5;" x1="205.75" x2="331.501" y1="297.44" y2="297.44"/><line style="stroke:#181818;stroke-width:0.5;" x1="205.75" x2="331.501" y1="305.44" y2="305.44"/></g><!--class IDbParameter--><g class="entity" data-qualified-name="IDbParameter" data-source-line="11" id="ent0005"><rect fill="#F1F1F1" height="48" rx="3.5" ry="3.5" style="stroke:#181818;stroke-width:0.5;" width="129.2617" x="367.99" y="265.44"/><ellipse cx="382.99" cy="281.44" fill="#B4A7E5" rx="11" ry="11" style="stroke:#181818;stroke-width:1;"/><path d="M378.9119,277.2056 L378.9119,275.0494 L386.3025,275.0494 L386.3025,277.2056 L383.8338,277.2056 L383.8338,285.2838 L386.3025,285.2838 L386.3025,287.44 L378.9119,287.44 L378.9119,285.2838 L381.3806,285.2838 L381.3806,277.2056 L378.9119,277.2056 Z " fill="#000000"/><text fill="#000000" font-family="sans-serif" font-size="14" font-style="italic" lengthAdjust="spacing" textLength="97.2617" x="396.99" y="286.2867">IDbParameter</text><line style="stroke:#181818;stroke-width:0.5;" x1="368.99" x2="496.2517" y1="297.44" y2="297.44"/><line style="stroke:#181818;stroke-width:0.5;" x1="368.99" x2="496.2517" y1="305.44" y2="305.44"/></g><!--class Client--><g class="entity" data-qualified-name="Client" data-source-line="17" id="ent0010"><rect fill="#98FB98" height="48" rx="3.5" ry="3.5" style="stroke:#181818;stroke-width:0.5;" width="72.5303" x="630.36" y="414.89"/><ellipse cx="645.36" cy="430.89" fill="#ADD1B2" rx="11" ry="11" style="stroke:#181818;stroke-width:1;"/><path d="M648.3288,436.5306 Q647.7506,436.8275 647.11,436.9681 Q646.4694,437.1244 645.7663,437.1244 Q643.2663,437.1244 641.9381,435.4838 Q640.6256,433.8275 640.6256,430.7025 Q640.6256,427.5775 641.9381,425.9213 Q643.2663,424.265 645.7663,424.265 Q646.4694,424.265 647.11,424.4213 Q647.7663,424.5775 648.3288,424.8744 L648.3288,427.5931 Q647.7038,427.015 647.11,426.7494 Q646.5163,426.4681 645.8913,426.4681 Q644.5475,426.4681 643.86,427.5463 Q643.1725,428.6088 643.1725,430.7025 Q643.1725,432.7963 643.86,433.8744 Q644.5475,434.9369 645.8913,434.9369 Q646.5163,434.9369 647.11,434.6713 Q647.7038,434.39 648.3288,433.8119 L648.3288,436.5306 Z " fill="#000000"/><text fill="#000000" font-family="sans-serif" font-size="14" lengthAdjust="spacing" textLength="40.5303" x="659.36" y="435.7367">Client</text><line style="stroke:#181818;stroke-width:0.5;" x1="631.36" x2="701.8903" y1="446.89" y2="446.89"/><line style="stroke:#181818;stroke-width:0.5;" x1="631.36" x2="701.8903" y1="454.89" y2="454.89"/></g><!--class SqlFactory--><g class="entity" data-qualified-name="SqlFactory" data-source-line="21" id="ent0013"><rect fill="#F1F1F1" height="48" rx="3.5" ry="3.5" style="stroke:#181818;stroke-width:0.5;" width="106.0879" x="314.58" y="7"/><ellipse cx="329.58" cy="23" fill="#ADD1B2" rx="11" ry="11" style="stroke:#181818;stroke-width:1;"/><path d="M332.5488,28.6406 Q331.9706,28.9375 331.33,29.0781 Q330.6894,29.2344 329.9863,29.2344 Q327.4863,29.2344 326.1581,27.5938 Q324.8456,25.9375 324.8456,22.8125 Q324.8456,19.6875 326.1581,18.0313 Q327.4863,16.375 329.9863,16.375 Q330.6894,16.375 331.33,16.5313 Q331.9863,16.6875 332.5488,16.9844 L332.5488,19.7031 Q331.9238,19.125 331.33,18.8594 Q330.7363,18.5781 330.1113,18.5781 Q328.7675,18.5781 328.08,19.6563 Q327.3925,20.7188 327.3925,22.8125 Q327.3925,24.9063 328.08,25.9844 Q328.7675,27.0469 330.1113,27.0469 Q330.7363,27.0469 331.33,26.7813 Q331.9238,26.5 332.5488,25.9219 L332.5488,28.6406 Z " fill="#000000"/><text fill="#000000" font-family="sans-serif" font-size="14" lengthAdjust="spacing" textLength="74.0879" x="343.58" y="27.8467">SqlFactory</text><line style="stroke:#181818;stroke-width:0.5;" x1="315.58" x2="419.6679" y1="39" y2="39"/><line style="stroke:#181818;stroke-width:0.5;" x1="315.58" x2="419.6679" y1="47" y2="47"/></g><!--class SqlConnection--><g class="entity" data-qualified-name="SqlConnection" data-source-line="23" id="ent0015"><rect fill="#F1F1F1" height="48" rx="3.5" ry="3.5" style="stroke:#181818;stroke-width:0.5;" width="132.8779" x="39.18" y="132"/><ellipse cx="54.18" cy="148" fill="#ADD1B2" rx="11" ry="11" style="stroke:#181818;stroke-width:1;"/><path d="M57.1488,153.6406 Q56.5706,153.9375 55.93,154.0781 Q55.2894,154.2344 54.5863,154.2344 Q52.0863,154.2344 50.7581,152.5938 Q49.4456,150.9375 49.4456,147.8125 Q49.4456,144.6875 50.7581,143.0313 Q52.0863,141.375 54.5863,141.375 Q55.2894,141.375 55.93,141.5313 Q56.5863,141.6875 57.1488,141.9844 L57.1488,144.7031 Q56.5238,144.125 55.93,143.8594 Q55.3363,143.5781 54.7113,143.5781 Q53.3675,143.5781 52.68,144.6563 Q51.9925,145.7188 51.9925,147.8125 Q51.9925,149.9063 52.68,150.9844 Q53.3675,152.0469 54.7113,152.0469 Q55.3363,152.0469 55.93,151.7813 Q56.5238,151.5 57.1488,150.9219 L57.1488,153.6406 Z " fill="#000000"/><text fill="#000000" font-family="sans-serif" font-size="14" lengthAdjust="spacing" textLength="100.8779" x="68.18" y="152.8467">SqlConnection</text><line style="stroke:#181818;stroke-width:0.5;" x1="40.18" x2="171.0579" y1="164" y2="164"/><line style="stroke:#181818;stroke-width:0.5;" x1="40.18" x2="171.0579" y1="172" y2="172"/></g><!--class SqlCommand--><g class="entity" data-qualified-name="SqlCommand" data-source-line="24" id="ent0017"><rect fill="#F1F1F1" height="48" rx="3.5" ry="3.5" style="stroke:#181818;stroke-width:0.5;" width="125.6182" x="206.81" y="132"/><ellipse cx="221.81" cy="148" fill="#ADD1B2" rx="11" ry="11" style="stroke:#181818;stroke-width:1;"/><path d="M224.7788,153.6406 Q224.2006,153.9375 223.56,154.0781 Q222.9194,154.2344 222.2163,154.2344 Q219.7163,154.2344 218.3881,152.5938 Q217.0756,150.9375 217.0756,147.8125 Q217.0756,144.6875 218.3881,143.0313 Q219.7163,141.375 222.2163,141.375 Q222.9194,141.375 223.56,141.5313 Q224.2163,141.6875 224.7788,141.9844 L224.7788,144.7031 Q224.1538,144.125 223.56,143.8594 Q222.9663,143.5781 222.3413,143.5781 Q220.9975,143.5781 220.31,144.6563 Q219.6225,145.7188 219.6225,147.8125 Q219.6225,149.9063 220.31,150.9844 Q220.9975,152.0469 222.3413,152.0469 Q222.9663,152.0469 223.56,151.7813 Q224.1538,151.5 224.7788,150.9219 L224.7788,153.6406 Z " fill="#000000"/><text fill="#000000" font-family="sans-serif" font-size="14" lengthAdjust="spacing" textLength="93.6182" x="235.81" y="152.8467">SqlCommand</text><line style="stroke:#181818;stroke-width:0.5;" x1="207.81" x2="331.4282" y1="164" y2="164"/><line style="stroke:#181818;stroke-width:0.5;" x1="207.81" x2="331.4282" y1="172" y2="172"/></g><!--class SqlParameter--><g class="entity" data-qualified-name="SqlParameter" data-source-line="25" id="ent0019"><rect fill="#F1F1F1" height="48" rx="3.5" ry="3.5" style="stroke:#181818;stroke-width:0.5;" width="127.1289" x="367.06" y="132"/><ellipse cx="382.06" cy="148" fill="#ADD1B2" rx="11" ry="11" style="stroke:#181818;stroke-width:1;"/><path d="M385.0288,153.6406 Q384.4506,153.9375 383.81,154.0781 Q383.1694,154.2344 382.4663,154.2344 Q379.9663,154.2344 378.6381,152.5938 Q377.3256,150.9375 377.3256,147.8125 Q377.3256,144.6875 378.6381,143.0313 Q379.9663,141.375 382.4663,141.375 Q383.1694,141.375 383.81,141.5313 Q384.4663,141.6875 385.0288,141.9844 L385.0288,144.7031 Q384.4038,144.125 383.81,143.8594 Q383.2163,143.5781 382.5913,143.5781 Q381.2475,143.5781 380.56,144.6563 Q379.8725,145.7188 379.8725,147.8125 Q379.8725,149.9063 380.56,150.9844 Q381.2475,152.0469 382.5913,152.0469 Q383.2163,152.0469 383.81,151.7813 Q384.4038,151.5 385.0288,150.9219 L385.0288,153.6406 Z " fill="#000000"/><text fill="#000000" font-family="sans-serif" font-size="14" lengthAdjust="spacing" textLength="95.1289" x="396.06" y="152.8467">SqlParameter</text><line style="stroke:#181818;stroke-width:0.5;" x1="368.06" x2="493.1889" y1="164" y2="164"/><line style="stroke:#181818;stroke-width:0.5;" x1="368.06" x2="493.1889" y1="172" y2="172"/></g><!--class MySqlFactory--><g class="entity" data-qualified-name="MySqlFactory" data-source-line="34" id="ent0026"><rect fill="#F1F1F1" height="48" rx="3.5" ry="3.5" style="stroke:#181818;stroke-width:0.5;" width="126.4521" x="296.4" y="539.89"/><ellipse cx="311.4" cy="555.89" fill="#ADD1B2" rx="11" ry="11" style="stroke:#181818;stroke-width:1;"/><path d="M314.3688,561.5306 Q313.7906,561.8275 313.15,561.9681 Q312.5094,562.1244 311.8063,562.1244 Q309.3063,562.1244 307.9781,560.4838 Q306.6656,558.8275 306.6656,555.7025 Q306.6656,552.5775 307.9781,550.9213 Q309.3063,549.265 311.8063,549.265 Q312.5094,549.265 313.15,549.4213 Q313.8063,549.5775 314.3688,549.8744 L314.3688,552.5931 Q313.7438,552.015 313.15,551.7494 Q312.5563,551.4681 311.9313,551.4681 Q310.5875,551.4681 309.9,552.5463 Q309.2125,553.6088 309.2125,555.7025 Q309.2125,557.7963 309.9,558.8744 Q310.5875,559.9369 311.9313,559.9369 Q312.5563,559.9369 313.15,559.6713 Q313.7438,559.39 314.3688,558.8119 L314.3688,561.5306 Z " fill="#000000"/><text fill="#000000" font-family="sans-serif" font-size="14" lengthAdjust="spacing" textLength="94.4521" x="325.4" y="560.7367">MySqlFactory</text><line style="stroke:#181818;stroke-width:0.5;" x1="297.4" x2="421.8521" y1="571.89" y2="571.89"/><line style="stroke:#181818;stroke-width:0.5;" x1="297.4" x2="421.8521" y1="579.89" y2="579.89"/></g><!--class MySqlConnection--><g class="entity" data-qualified-name="MySqlConnection" data-source-line="36" id="ent0029"><rect fill="#F1F1F1" height="48" rx="3.5" ry="3.5" style="stroke:#181818;stroke-width:0.5;" width="153.2422" x="7" y="414.89"/><ellipse cx="22" cy="430.89" fill="#ADD1B2" rx="11" ry="11" style="stroke:#181818;stroke-width:1;"/><path d="M24.9688,436.5306 Q24.3906,436.8275 23.75,436.9681 Q23.1094,437.1244 22.4063,437.1244 Q19.9063,437.1244 18.5781,435.4838 Q17.2656,433.8275 17.2656,430.7025 Q17.2656,427.5775 18.5781,425.9213 Q19.9063,424.265 22.4063,424.265 Q23.1094,424.265 23.75,424.4213 Q24.4063,424.5775 24.9688,424.8744 L24.9688,427.5931 Q24.3438,427.015 23.75,426.7494 Q23.1563,426.4681 22.5313,426.4681 Q21.1875,426.4681 20.5,427.5463 Q19.8125,428.6088 19.8125,430.7025 Q19.8125,432.7963 20.5,433.8744 Q21.1875,434.9369 22.5313,434.9369 Q23.1563,434.9369 23.75,434.6713 Q24.3438,434.39 24.9688,433.8119 L24.9688,436.5306 Z " fill="#000000"/><text fill="#000000" font-family="sans-serif" font-size="14" lengthAdjust="spacing" textLength="121.2422" x="36" y="435.7367">MySqlConnection</text><line style="stroke:#181818;stroke-width:0.5;" x1="8" x2="159.2422" y1="446.89" y2="446.89"/><line style="stroke:#181818;stroke-width:0.5;" x1="8" x2="159.2422" y1="454.89" y2="454.89"/></g><!--class MySqlCommand--><g class="entity" data-qualified-name="MySqlCommand" data-source-line="37" id="ent0032"><rect fill="#F1F1F1" height="48" rx="3.5" ry="3.5" style="stroke:#181818;stroke-width:0.5;" width="145.9824" x="195.63" y="414.89"/><ellipse cx="210.63" cy="430.89" fill="#ADD1B2" rx="11" ry="11" style="stroke:#181818;stroke-width:1;"/><path d="M213.5988,436.5306 Q213.0206,436.8275 212.38,436.9681 Q211.7394,437.1244 211.0363,437.1244 Q208.5363,437.1244 207.2081,435.4838 Q205.8956,433.8275 205.8956,430.7025 Q205.8956,427.5775 207.2081,425.9213 Q208.5363,424.265 211.0363,424.265 Q211.7394,424.265 212.38,424.4213 Q213.0363,424.5775 213.5988,424.8744 L213.5988,427.5931 Q212.9738,427.015 212.38,426.7494 Q211.7863,426.4681 211.1613,426.4681 Q209.8175,426.4681 209.13,427.5463 Q208.4425,428.6088 208.4425,430.7025 Q208.4425,432.7963 209.13,433.8744 Q209.8175,434.9369 211.1613,434.9369 Q211.7863,434.9369 212.38,434.6713 Q212.9738,434.39 213.5988,433.8119 L213.5988,436.5306 Z " fill="#000000"/><text fill="#000000" font-family="sans-serif" font-size="14" lengthAdjust="spacing" textLength="113.9824" x="224.63" y="435.7367">MySqlCommand</text><line style="stroke:#181818;stroke-width:0.5;" x1="196.63" x2="340.6124" y1="446.89" y2="446.89"/><line style="stroke:#181818;stroke-width:0.5;" x1="196.63" x2="340.6124" y1="454.89" y2="454.89"/></g><!--class MySqlParameter--><g class="entity" data-qualified-name="MySqlParameter" data-source-line="38" id="ent0035"><rect fill="#F1F1F1" height="48" rx="3.5" ry="3.5" style="stroke:#181818;stroke-width:0.5;" width="147.4932" x="376.87" y="414.89"/><ellipse cx="391.87" cy="430.89" fill="#ADD1B2" rx="11" ry="11" style="stroke:#181818;stroke-width:1;"/><path d="M394.8388,436.5306 Q394.2606,436.8275 393.62,436.9681 Q392.9794,437.1244 392.2763,437.1244 Q389.7763,437.1244 388.4481,435.4838 Q387.1356,433.8275 387.1356,430.7025 Q387.1356,427.5775 388.4481,425.9213 Q389.7763,424.265 392.2763,424.265 Q392.9794,424.265 393.62,424.4213 Q394.2763,424.5775 394.8388,424.8744 L394.8388,427.5931 Q394.2138,427.015 393.62,426.7494 Q393.0263,426.4681 392.4013,426.4681 Q391.0575,426.4681 390.37,427.5463 Q389.6825,428.6088 389.6825,430.7025 Q389.6825,432.7963 390.37,433.8744 Q391.0575,434.9369 392.4013,434.9369 Q393.0263,434.9369 393.62,434.6713 Q394.2138,434.39 394.8388,433.8119 L394.8388,436.5306 Z " fill="#000000"/><text fill="#000000" font-family="sans-serif" font-size="14" lengthAdjust="spacing" textLength="115.4932" x="405.87" y="435.7367">MySqlParameter</text><line style="stroke:#181818;stroke-width:0.5;" x1="377.87" x2="523.3632" y1="446.89" y2="446.89"/><line style="stroke:#181818;stroke-width:0.5;" x1="377.87" x2="523.3632" y1="454.89" y2="454.89"/></g><!--link IDbParameter to IDbFactory--><!--link IDbConnection to IDbCommand--><!--link IDbCommand to IDbParameter--><!--reverse link IDbFactory to Client--><g class="link" data-entity-1="ent0002" data-entity-2="ent0010" data-link-type="dependency" data-source-line="19" id="lnk12"><path codeLine="19" d="M639.261,344.0797 C646.721,369.6397 653.88,394.19 659.83,414.6" fill="none" id="IDbFactory-backto-Client" style="stroke:#454645;stroke-width:1;"/><polygon fill="#454645" points="637.58,338.32,636.2618,348.0802,638.9809,343.1197,643.9414,345.8389,637.58,338.32" style="stroke:#454645;stroke-width:1;"/><text fill="#000000" font-family="sans-serif" font-size="13" lengthAdjust="spacing" textLength="29.7832" x="650.62" y="380.9569">uses</text></g><!--link SqlFactory to IDbFactory--><g class="link" data-entity-1="ent0013" data-entity-2="ent0002" data-link-type="extension" data-source-line="21" id="lnk14"><path codeLine="21" d="M413.37,55.36 C428.84,63.96 445.92,74.25 460.62,85 C518.53,127.34 557.6338,180.005 586.3138,225.585" fill="none" id="SqlFactory-to-IDbFactory" style="stroke:#454645;stroke-width:1;stroke-dasharray:7,7;"/><polygon fill="none" points="595.9,240.82,591.3921,222.3896,581.2355,228.7804,595.9,240.82" style="stroke:#454645;stroke-width:1;"/></g><!--link SqlFactory to SqlConnection--><g class="link" data-entity-1="ent0013" data-entity-2="ent0015" data-link-type="dependency" data-source-line="23" id="lnk16"><path codeLine="23" d="M317.55,55.47 C297.93,64.68 275.22,75.33 254.62,85 C221.51,100.54 189.6902,115.4879 160.7102,129.1079" fill="none" id="SqlFactory-to-SqlConnection" style="stroke:#454645;stroke-width:1;stroke-dasharray:7,7;"/><polygon fill="#454645" points="155.28,131.66,165.1267,131.452,159.8052,129.5333,161.7239,124.2118,155.28,131.66" style="stroke:#454645;stroke-width:1;"/><text fill="#000000" font-family="sans-serif" font-size="13" lengthAdjust="spacing" textLength="48.3247" x="255.62" y="98.0669">creates</text></g><!--link SqlFactory to SqlCommand--><g class="link" data-entity-1="ent0013" data-entity-2="ent0017" data-link-type="dependency" data-source-line="24" id="lnk18"><path codeLine="24" d="M348.96,55.42 C331.52,77.31 309.3679,105.1066 291.9579,126.9666" fill="none" id="SqlFactory-to-SqlCommand" style="stroke:#454645;stroke-width:1;stroke-dasharray:7,7;"/><polygon fill="#454645" points="288.22,131.66,296.9558,127.1119,291.335,127.7489,290.698,122.128,288.22,131.66" style="stroke:#454645;stroke-width:1;"/><text fill="#000000" font-family="sans-serif" font-size="13" lengthAdjust="spacing" textLength="48.3247" x="324.62" y="98.0669">creates</text></g><!--link SqlFactory to SqlParameter--><g class="link" data-entity-1="ent0013" data-entity-2="ent0019" data-link-type="dependency" data-source-line="25" id="lnk20"><path codeLine="25" d="M379.62,55.42 C390.83,77.31 404.7341,104.4601 415.9341,126.3201" fill="none" id="SqlFactory-to-SqlParameter" style="stroke:#454645;stroke-width:1;stroke-dasharray:7,7;"/><polygon fill="#454645" points="418.67,131.66,418.1261,121.8262,416.3901,127.2101,411.0062,125.4741,418.67,131.66" style="stroke:#454645;stroke-width:1;"/><text fill="#000000" font-family="sans-serif" font-size="13" lengthAdjust="spacing" textLength="48.3247" x="403.62" y="98.0669">creates</text></g><!--link SqlConnection to IDbConnection--><g class="link" data-entity-1="ent0015" data-entity-2="ent0003" data-link-type="extension" data-source-line="27" id="lnk21"><path codeLine="27" d="M105.08,180.5 C104.54,204.42 104.115,223.3048 103.565,247.1548" fill="none" id="SqlConnection-to-IDbConnection" style="stroke:#454645;stroke-width:1;stroke-dasharray:7,7;"/><polygon fill="none" points="103.15,265.15,109.5634,247.2931,97.5666,247.0165,103.15,265.15" style="stroke:#454645;stroke-width:1;"/></g><!--link SqlParameter to IDbParameter--><g class="link" data-entity-1="ent0019" data-entity-2="ent0005" data-link-type="extension" data-source-line="28" id="lnk22"><path codeLine="28" d="M430.98,180.5 C431.34,204.42 431.6208,223.3022 431.9908,247.1522" fill="none" id="SqlParameter-to-IDbParameter" style="stroke:#454645;stroke-width:1;stroke-dasharray:7,7;"/><polygon fill="none" points="432.27,265.15,437.9901,247.0591,425.9915,247.2452,432.27,265.15" style="stroke:#454645;stroke-width:1;"/></g><!--link SqlCommand to IDbCommand--><g class="link" data-entity-1="ent0017" data-entity-2="ent0004" data-link-type="extension" data-source-line="29" id="lnk23"><path codeLine="29" d="M269.44,180.5 C269.26,204.42 269.1158,223.3005 268.9358,247.1505" fill="none" id="SqlCommand-to-IDbCommand" style="stroke:#454645;stroke-width:1;stroke-dasharray:7,7;"/><polygon fill="none" points="268.8,265.15,274.9357,247.1958,262.936,247.1052,268.8,265.15" style="stroke:#454645;stroke-width:1;"/></g><!--link SqlConnection to SqlCommand--><!--link SqlCommand to SqlParameter--><!--reverse link IDbFactory to MySqlFactory--><g class="link" data-entity-1="ent0002" data-entity-2="ent0026" data-link-type="extension" data-source-line="34" id="lnk28"><path codeLine="34" d="M603.1255,355.116 C590.0255,392.276 573.81,426.52 541.62,462.89 C509.85,498.8 461.96,524.39 423.29,540.69" fill="none" id="IDbFactory-backto-MySqlFactory" style="stroke:#454645;stroke-width:1;stroke-dasharray:7,7;"/><polygon fill="none" points="609.11,338.14,597.4668,353.1212,608.7841,357.1109,609.11,338.14" style="stroke:#454645;stroke-width:1;"/></g><!--reverse link MySqlConnection to MySqlFactory--><g class="link" data-entity-1="ent0029" data-entity-2="ent0026" data-link-type="dependency" data-source-line="36" id="lnk31"><path codeLine="36" d="M141.6604,465.7523 C190.7804,487.6423 258.21,517.69 307.25,539.55" fill="none" id="MySqlConnection-backto-MySqlFactory" style="stroke:#454645;stroke-width:1;stroke-dasharray:7,7;"/><polygon fill="#454645" points="136.18,463.31,142.7724,470.6271,140.747,465.3453,146.0289,463.3199,136.18,463.31" style="stroke:#454645;stroke-width:1;"/><text fill="#000000" font-family="sans-serif" font-size="13" lengthAdjust="spacing" textLength="48.3247" x="238.62" y="505.9569">creates</text></g><!--reverse link MySqlCommand to MySqlFactory--><g class="link" data-entity-1="ent0032" data-entity-2="ent0026" data-link-type="dependency" data-source-line="37" id="lnk34"><path codeLine="37" d="M284.5289,468.4868 C292.5789,482.4368 300.5,495.06 311.62,509.89 C319.22,520.02 328.38,530.49 336.66,539.43" fill="none" id="MySqlCommand-backto-MySqlFactory" style="stroke:#454645;stroke-width:1;stroke-dasharray:7,7;"/><polygon fill="#454645" points="281.53,463.29,282.5638,473.0845,284.0291,467.6207,289.4928,469.086,281.53,463.29" style="stroke:#454645;stroke-width:1;"/><text fill="#000000" font-family="sans-serif" font-size="13" lengthAdjust="spacing" textLength="48.3247" x="312.62" y="505.9569">creates</text></g><!--reverse link MySqlParameter to MySqlFactory--><g class="link" data-entity-1="ent0035" data-entity-2="ent0026" data-link-type="dependency" data-source-line="38" id="lnk37"><path codeLine="38" d="M429.7222,468.134 C413.5322,490.024 393.06,517.69 376.89,539.55" fill="none" id="MySqlParameter-backto-MySqlFactory" style="stroke:#454645;stroke-width:1;stroke-dasharray:7,7;"/><polygon fill="#454645" points="433.29,463.31,424.7223,468.1674,430.3168,467.33,431.1542,472.9245,433.29,463.31" style="stroke:#454645;stroke-width:1;"/><text fill="#000000" font-family="sans-serif" font-size="13" lengthAdjust="spacing" textLength="48.3247" x="410.62" y="505.9569">creates</text></g><!--reverse link IDbConnection to MySqlConnection--><g class="link" data-entity-1="ent0003" data-entity-2="ent0029" data-link-type="extension" data-source-line="40" id="lnk39"><path codeLine="40" d="M97.3082,331.6622 C93.7482,359.2722 90.17,387.08 86.62,414.64" fill="none" id="IDbConnection-backto-MySqlConnection" style="stroke:#454645;stroke-width:1;stroke-dasharray:7,7;"/><polygon fill="none" points="99.61,313.81,91.3574,330.8949,103.2589,332.4295,99.61,313.81" style="stroke:#454645;stroke-width:1;"/></g><!--reverse link IDbParameter to MySqlParameter--><g class="link" data-entity-1="ent0005" data-entity-2="ent0035" data-link-type="extension" data-source-line="41" id="lnk41"><path codeLine="41" d="M437.6508,331.6774 C441.0208,359.2874 444.42,387.08 447.78,414.64" fill="none" id="IDbParameter-backto-MySqlParameter" style="stroke:#454645;stroke-width:1;stroke-dasharray:7,7;"/><polygon fill="none" points="435.47,313.81,431.695,332.4043,443.6066,330.9504,435.47,313.81" style="stroke:#454645;stroke-width:1;"/></g><!--reverse link IDbCommand to MySqlCommand--><g class="link" data-entity-1="ent0004" data-entity-2="ent0032" data-link-type="extension" data-source-line="42" id="lnk43"><path codeLine="42" d="M268.62,331.81 C268.62,359.42 268.62,387.08 268.62,414.64" fill="none" id="IDbCommand-backto-MySqlCommand" style="stroke:#454645;stroke-width:1;stroke-dasharray:7,7;"/><polygon fill="none" points="268.62,313.81,262.62,331.81,274.62,331.81,268.62,313.81" style="stroke:#454645;stroke-width:1;"/></g><!--link MySqlConnection to MySqlCommand--><!--link MySqlCommand to MySqlParameter--><?plantuml-src XP71JiCm44Jl_WgZNa0e_O0USac5nA4I4aV4mN6sZQLa4sodg0B-dIXfurtZY9irVZkp7j_v6bgGPrDQXLu8WnxiKMcGp_loIMdVsOly4e-oiA0yxCkYGmJjJOVt3qnkMuKLqrwKLIsCVgFw4ra7crYVVBYu60b1jihUQbDLWEyD77t6EPOGI6jEzOpUSi8nHP5WtIZdPD4OG2ytlMhWP05GYAkK3NsMqz9sSd3WX7ZzQ6xIjke-SVjDiSHzBaU9RB-JUYhKhQBp_lznosC8ANWKNP3y41kcJEY7xC5DvfgZdBZgC4sD4XJvaCE5FdFeurx_tEToafBDhiDnjsjaijquCAn9set60nCUotQX9jTsuvouEJhFpPBa4lmB?></g></svg>