<svg xmlns="http://www.w3.org/2000/svg" xmlns:xlink="http://www.w3.org/1999/xlink" contentStyleType="text/css" data-diagram-type="CLASS" height="302px" preserveAspectRatio="none" style="width:534px;height:302px;background:#FFFFFF;" version="1.1" viewBox="0 0 534 302" width="534px" zoomAndPan="magnify"><?plantuml 1.2026.4beta2?><defs/><g><!--class INumberConversionService--><g class="entity" data-qualified-name="INumberConversionService" data-source-line="3" id="ent0002"><rect fill="#F1F1F1" height="64.2969" rx="3.5" ry="3.5" style="stroke:#181818;stroke-width:0.5;" width="253.0693" x="146.97" y="115"/><ellipse cx="175.6814" cy="131" fill="#B4A7E5" rx="11" ry="11" style="stroke:#181818;stroke-width:1;"/><path d="M171.6033,126.7656 L171.6033,124.6094 L178.9939,124.6094 L178.9939,126.7656 L176.5251,126.7656 L176.5251,134.8438 L178.9939,134.8438 L178.9939,137 L171.6033,137 L171.6033,134.8438 L174.072,134.8438 L174.072,126.7656 L171.6033,126.7656 Z " fill="#000000"/><text fill="#000000" font-family="sans-serif" font-size="14" font-style="italic" lengthAdjust="spacing" textLength="190.5996" x="192.7283" y="135.8467">INumberConversionService</text><line style="stroke:#181818;stroke-width:0.5;" x1="147.97" x2="399.0393" y1="147" y2="147"/><line style="stroke:#181818;stroke-width:0.5;" x1="147.97" x2="399.0393" y1="155" y2="155"/><g data-visibility-modifier="PUBLIC_METHOD"><ellipse cx="157.97" cy="168.6484" fill="#84BE84" rx="3" ry="3" style="stroke:#038048;stroke-width:1;"/></g><text fill="#000000" font-family="sans-serif" font-size="14" lengthAdjust="spacing" textLength="227.0693" x="166.97" y="171.9951">NumberToWords(number:ulong)</text></g><!--class NumberConversionServiceClient--><g class="entity" data-qualified-name="NumberConversionServiceClient" data-source-line="7" id="ent0003"><rect fill="#F1F1F1" height="48" rx="3.5" ry="3.5" style="stroke:#181818;stroke-width:0.5;" width="259.001" x="7" y="239.3"/><ellipse cx="22" cy="255.3" fill="#ADD1B2" rx="11" ry="11" style="stroke:#181818;stroke-width:1;"/><path d="M24.9688,260.9406 Q24.3906,261.2375 23.75,261.3781 Q23.1094,261.5344 22.4063,261.5344 Q19.9063,261.5344 18.5781,259.8938 Q17.2656,258.2375 17.2656,255.1125 Q17.2656,251.9875 18.5781,250.3313 Q19.9063,248.675 22.4063,248.675 Q23.1094,248.675 23.75,248.8313 Q24.4063,248.9875 24.9688,249.2844 L24.9688,252.0031 Q24.3438,251.425 23.75,251.1594 Q23.1563,250.8781 22.5313,250.8781 Q21.1875,250.8781 20.5,251.9563 Q19.8125,253.0188 19.8125,255.1125 Q19.8125,257.2063 20.5,258.2844 Q21.1875,259.3469 22.5313,259.3469 Q23.1563,259.3469 23.75,259.0813 Q24.3438,258.8 24.9688,258.2219 L24.9688,260.9406 Z " fill="#000000"/><text fill="#000000" font-family="sans-serif" font-size="14" lengthAdjust="spacing" textLength="227.001" x="36" y="260.1467">NumberConversionServiceClient</text><line style="stroke:#181818;stroke-width:0.5;" x1="8" x2="265.001" y1="271.3" y2="271.3"/><line style="stroke:#181818;stroke-width:0.5;" x1="8" x2="265.001" y1="279.3" y2="279.3"/></g><!--class NumberConversionService--><g class="entity" data-qualified-name="NumberConversionService" data-source-line="9" id="ent0006"><rect fill="#F1F1F1" height="48" rx="3.5" ry="3.5" style="stroke:#181818;stroke-width:0.5;" width="218.4707" x="301.27" y="239.3"/><ellipse cx="316.27" cy="255.3" fill="#ADD1B2" rx="11" ry="11" style="stroke:#181818;stroke-width:1;"/><path d="M319.2388,260.9406 Q318.6606,261.2375 318.02,261.3781 Q317.3794,261.5344 316.6763,261.5344 Q314.1763,261.5344 312.8481,259.8938 Q311.5356,258.2375 311.5356,255.1125 Q311.5356,251.9875 312.8481,250.3313 Q314.1763,248.675 316.6763,248.675 Q317.3794,248.675 318.02,248.8313 Q318.6763,248.9875 319.2388,249.2844 L319.2388,252.0031 Q318.6138,251.425 318.02,251.1594 Q317.4263,250.8781 316.8013,250.8781 Q315.4575,250.8781 314.77,251.9563 Q314.0825,253.0188 314.0825,255.1125 Q314.0825,257.2063 314.77,258.2844 Q315.4575,259.3469 316.8013,259.3469 Q317.4263,259.3469 318.02,259.0813 Q318.6138,258.8 319.2388,258.2219 L319.2388,260.9406 Z " fill="#000000"/><text fill="#000000" font-family="sans-serif" font-size="14" lengthAdjust="spacing" textLength="186.4707" x="330.27" y="260.1467">NumberConversionService</text><line style="stroke:#181818;stroke-width:0.5;" x1="302.27" x2="518.7407" y1="271.3" y2="271.3"/><line style="stroke:#181818;stroke-width:0.5;" x1="302.27" x2="518.7407" y1="279.3" y2="279.3"/></g><!--class Client--><g class="entity" data-qualified-name="Client" data-source-line="13" id="ent0010"><rect fill="#98FB98" height="48" rx="3.5" ry="3.5" style="stroke:#181818;stroke-width:0.5;" width="72.5303" x="237.24" y="7"/><ellipse cx="252.24" cy="23" fill="#ADD1B2" rx="11" ry="11" style="stroke:#181818;stroke-width:1;"/><path d="M255.2088,28.6406 Q254.6306,28.9375 253.99,29.0781 Q253.3494,29.2344 252.6463,29.2344 Q250.1463,29.2344 248.8181,27.5938 Q247.5056,25.9375 247.5056,22.8125 Q247.5056,19.6875 248.8181,18.0313 Q250.1463,16.375 252.6463,16.375 Q253.3494,16.375 253.99,16.5313 Q254.6463,16.6875 255.2088,16.9844 L255.2088,19.7031 Q254.5838,19.125 253.99,18.8594 Q253.3963,18.5781 252.7713,18.5781 Q251.4275,18.5781 250.74,19.6563 Q250.0525,20.7188 250.0525,22.8125 Q250.0525,24.9063 250.74,25.9844 Q251.4275,27.0469 252.7713,27.0469 Q253.3963,27.0469 253.99,26.7813 Q254.5838,26.5 255.2088,25.9219 L255.2088,28.6406 Z " fill="#000000"/><text fill="#000000" font-family="sans-serif" font-size="14" lengthAdjust="spacing" textLength="40.5303" x="266.24" y="27.8467">Client</text><line style="stroke:#181818;stroke-width:0.5;" x1="238.24" x2="308.7703" y1="39" y2="39"/><line style="stroke:#181818;stroke-width:0.5;" x1="238.24" x2="308.7703" y1="47" y2="47"/></g><!--reverse link INumberConversionService to NumberConversionServiceClient--><g class="link" data-entity-1="ent0002" data-entity-2="ent0003" data-link-type="extension" data-source-line="7" id="lnk5"><path codeLine="7" d="M221.8715,191.1727 C199.3815,209.9127 185.15,221.77 164.61,238.88" fill="none" id="INumberConversionService-backto-NumberConversionServiceClient" style="stroke:#454645;stroke-width:1;stroke-dasharray:7,7;"/><polygon fill="none" points="235.7,179.65,218.0306,186.5632,225.7124,195.7822,235.7,179.65" style="stroke:#454645;stroke-width:1;"/></g><!--reverse link INumberConversionService to NumberConversionService--><g class="link" data-entity-1="ent0002" data-entity-2="ent0006" data-link-type="extension" data-source-line="9" id="lnk8"><path codeLine="9" d="M325.1285,191.1727 C347.6185,209.9127 361.85,221.77 382.39,238.88" fill="none" id="INumberConversionService-backto-NumberConversionService" style="stroke:#454645;stroke-width:1;stroke-dasharray:7,7;"/><polygon fill="none" points="311.3,179.65,321.2876,195.7822,328.9694,186.5632,311.3,179.65" style="stroke:#454645;stroke-width:1;"/></g><!--link NumberConversionServiceClient to NumberConversionService--><g class="link" data-entity-1="ent0003" data-entity-2="ent0006" data-link-type="aggregation" data-source-line="11" id="lnk9"><path codeLine="11" d="M278.28,263.3 C289.83,263.3 283.37,263.3 294.92,263.3" fill="none" id="NumberConversionServiceClient-NumberConversionService" style="stroke:#454645;stroke-width:1;"/><polygon fill="none" points="266.28,263.3,272.28,267.3,278.28,263.3,272.28,259.3,266.28,263.3" style="stroke:#454645;stroke-width:1;"/><polygon fill="#454645" points="300.92,263.3,291.92,259.3,295.92,263.3,291.92,267.3,300.92,263.3" style="stroke:#454645;stroke-width:1;"/></g><!--link Client to INumberConversionService--><g class="link" data-entity-1="ent0010" data-entity-2="ent0002" data-link-type="dependency" data-source-line="15" id="lnk11"><path codeLine="15" d="M273.5,55.38 C273.5,72.47 273.5,89.84 273.5,108.58" fill="none" id="Client-to-INumberConversionService" style="stroke:#454645;stroke-width:1;"/><polygon fill="#454645" points="273.5,114.58,277.5,105.58,273.5,109.58,269.5,105.58,273.5,114.58" style="stroke:#454645;stroke-width:1;"/></g><?plantuml-src dOqz3i8m38LtdoA81OJI0p1qwSJ2GYNcj9ZKKcfNJj85k3i8icPXV3_VUviquOncfK4T9m3YX7ft8vhJESy3QYUyeaOIlg2kz0aUSFX5lLn5Rt77NtNCGTZluGLG8Rj0oCaqUMcURNM_YlyDbb-nIdvAjZNLWJ6u64tfRnSNq2iY0nJBslhz6m00?></g></svg>