<svg xmlns="http://www.w3.org/2000/svg" xmlns:xlink="http://www.w3.org/1999/xlink" contentStyleType="text/css" data-diagram-type="CLASS" height="263px" preserveAspectRatio="none" style="width:323px;height:263px;background:#FFFFFF;" version="1.1" viewBox="0 0 323 263" width="323px" zoomAndPan="magnify"><?plantuml 1.2026.4beta2?><defs/><g><!--class ICloneable--><g class="entity" data-qualified-name="ICloneable" data-source-line="3" id="ent0002"><rect fill="#F1F1F1" height="64.2969" rx="3.5" ry="3.5" style="stroke:#181818;stroke-width:0.5;" width="117.1445" x="108.69" y="10"/><ellipse cx="123.69" cy="26" fill="#B4A7E5" rx="11" ry="11" style="stroke:#181818;stroke-width:1;"/><path d="M119.6119,21.7656 L119.6119,19.6094 L127.0025,19.6094 L127.0025,21.7656 L124.5338,21.7656 L124.5338,29.8438 L127.0025,29.8438 L127.0025,32 L119.6119,32 L119.6119,29.8438 L122.0806,29.8438 L122.0806,21.7656 L119.6119,21.7656 Z " fill="#000000"/><text fill="#000000" font-family="sans-serif" font-size="14" font-style="italic" lengthAdjust="spacing" textLength="73.8145" x="137.69" y="30.8467">ICloneable</text><rect fill="#FFFFFF" height="15.9688" style="stroke:#181818;stroke-width:1;stroke-dasharray:2,2;" width="9.3301" x="219.5045" y="7"/><text fill="#000000" font-family="sans-serif" font-size="12" font-style="italic" lengthAdjust="spacing" textLength="7.3301" x="220.5045" y="19.1387">T</text><line style="stroke:#181818;stroke-width:0.5;" x1="109.69" x2="224.8345" y1="42" y2="42"/><line style="stroke:#181818;stroke-width:0.5;" x1="109.69" x2="224.8345" y1="50" y2="50"/><g data-visibility-modifier="PUBLIC_METHOD"><ellipse cx="119.69" cy="63.6484" fill="#84BE84" rx="3" ry="3" style="stroke:#038048;stroke-width:1;"/></g><text fill="#000000" font-family="sans-serif" font-size="14" lengthAdjust="spacing" textLength="50.6406" x="128.69" y="66.9951">Clone()</text></g><!--class Document--><g class="entity" data-qualified-name="Document" data-source-line="7" id="ent0003"><rect fill="#F1F1F1" height="113.1875" rx="3.5" ry="3.5" style="stroke:#181818;stroke-width:0.5;" width="104.5293" x="115" y="135.29"/><ellipse cx="130" cy="151.29" fill="#ADD1B2" rx="11" ry="11" style="stroke:#181818;stroke-width:1;"/><path d="M132.9688,156.9306 Q132.3906,157.2275 131.75,157.3681 Q131.1094,157.5244 130.4063,157.5244 Q127.9063,157.5244 126.5781,155.8838 Q125.2656,154.2275 125.2656,151.1025 Q125.2656,147.9775 126.5781,146.3213 Q127.9063,144.665 130.4063,144.665 Q131.1094,144.665 131.75,144.8213 Q132.4063,144.9775 132.9688,145.2744 L132.9688,147.9931 Q132.3438,147.415 131.75,147.1494 Q131.1563,146.8681 130.5313,146.8681 Q129.1875,146.8681 128.5,147.9463 Q127.8125,149.0088 127.8125,151.1025 Q127.8125,153.1963 128.5,154.2744 Q129.1875,155.3369 130.5313,155.3369 Q131.1563,155.3369 131.75,155.0713 Q132.3438,154.79 132.9688,154.2119 L132.9688,156.9306 Z " fill="#000000"/><text fill="#000000" font-family="sans-serif" font-size="14" lengthAdjust="spacing" textLength="72.5293" x="144" y="156.1367">Document</text><line style="stroke:#181818;stroke-width:0.5;" x1="116" x2="218.5293" y1="167.29" y2="167.29"/><g data-visibility-modifier="PRIVATE_FIELD"><rect fill="none" height="6" style="stroke:#C82930;stroke-width:1;" width="6" x="123" y="177.9384"/></g><text fill="#000000" font-family="sans-serif" font-size="14" lengthAdjust="spacing" textLength="51.2764" x="135" y="184.2851">version</text><g data-visibility-modifier="PUBLIC_FIELD"><ellipse cx="126" cy="197.2353" fill="none" rx="3" ry="3" style="stroke:#038048;stroke-width:1;"/></g><text fill="#000000" font-family="sans-serif" font-size="14" lengthAdjust="spacing" textLength="75.6055" x="135" y="200.582">CreatedOn</text><g data-visibility-modifier="PUBLIC_FIELD"><ellipse cx="126" cy="213.5322" fill="none" rx="3" ry="3" style="stroke:#038048;stroke-width:1;"/></g><text fill="#000000" font-family="sans-serif" font-size="14" lengthAdjust="spacing" textLength="30.9395" x="135" y="216.8789">Text</text><line style="stroke:#181818;stroke-width:0.5;" x1="116" x2="218.5293" y1="224.1806" y2="224.1806"/><g data-visibility-modifier="PUBLIC_METHOD"><ellipse cx="126" cy="237.8291" fill="#84BE84" rx="3" ry="3" style="stroke:#038048;stroke-width:1;"/></g><text fill="#000000" font-family="sans-serif" font-size="14" lengthAdjust="spacing" textLength="50.6406" x="135" y="241.1757">Clone()</text></g><!--class Client--><g class="entity" data-qualified-name="Client" data-source-line="14" id="ent0004"><rect fill="#98FB98" height="48" rx="3.5" ry="3.5" style="stroke:#181818;stroke-width:0.5;" width="72.5303" x="7" y="167.89"/><ellipse cx="22" cy="183.89" fill="#ADD1B2" rx="11" ry="11" style="stroke:#181818;stroke-width:1;"/><path d="M24.9688,189.5306 Q24.3906,189.8275 23.75,189.9681 Q23.1094,190.1244 22.4063,190.1244 Q19.9063,190.1244 18.5781,188.4838 Q17.2656,186.8275 17.2656,183.7025 Q17.2656,180.5775 18.5781,178.9213 Q19.9063,177.265 22.4063,177.265 Q23.1094,177.265 23.75,177.4213 Q24.4063,177.5775 24.9688,177.8744 L24.9688,180.5931 Q24.3438,180.015 23.75,179.7494 Q23.1563,179.4681 22.5313,179.4681 Q21.1875,179.4681 20.5,180.5463 Q19.8125,181.6088 19.8125,183.7025 Q19.8125,185.7963 20.5,186.8744 Q21.1875,187.9369 22.5313,187.9369 Q23.1563,187.9369 23.75,187.6713 Q24.3438,187.39 24.9688,186.8119 L24.9688,189.5306 Z " fill="#000000"/><text fill="#000000" font-family="sans-serif" font-size="14" lengthAdjust="spacing" textLength="40.5303" x="36" y="188.7367">Client</text><line style="stroke:#181818;stroke-width:0.5;" x1="8" x2="78.5303" y1="199.89" y2="199.89"/><line style="stroke:#181818;stroke-width:0.5;" x1="8" x2="78.5303" y1="207.89" y2="207.89"/></g><!--reverse link ICloneable to Document--><g class="link" data-entity-1="ent0002" data-entity-2="ent0003" data-link-type="extension" data-source-line="16" id="lnk6"><path codeLine="16" d="M167.27,92.48 C167.27,110.01 167.27,114.39 167.27,134.84" fill="none" id="ICloneable-backto-Document" style="stroke:#454645;stroke-width:1;stroke-dasharray:7,7;"/><polygon fill="none" points="167.27,74.48,161.27,92.48,173.27,92.48,167.27,74.48" style="stroke:#454645;stroke-width:1;"/></g><!--link Document to Document--><g class="link" data-entity-1="ent0003" data-entity-2="ent0003" data-link-type="dependency" data-source-line="18" id="lnk7"><path codeLine="18" d="M219.66,175.58 C238.83,175.14 254.53,180.57 254.53,191.89 C254.53,203.2 244.8284,208.7677 225.6584,208.3277" fill="none" id="Document-to-Document" style="stroke:#454645;stroke-width:1;"/><polygon fill="#454645" points="219.66,208.19,228.5658,212.3955,224.6587,208.3047,228.7494,204.3976,219.66,208.19" style="stroke:#454645;stroke-width:1;"/><text fill="#000000" font-family="sans-serif" font-size="13" lengthAdjust="spacing" textLength="41.7231" x="260.53" y="196.4569">clones</text></g><!--link Client to Document--><g class="link" data-entity-1="ent0004" data-entity-2="ent0003" data-link-type="dependency" data-source-line="20" id="lnk8"><path codeLine="20" d="M79.59,191.89 C91.24,191.89 96.88,191.89 108.53,191.89" fill="none" id="Client-to-Document" style="stroke:#454645;stroke-width:1;"/><polygon fill="#454645" points="114.53,191.89,105.53,187.89,109.53,191.89,105.53,195.89,114.53,191.89" style="stroke:#454645;stroke-width:1;"/></g><?plantuml-src NOr13e8m54Jt_nGrRZIc7C0ODhXnvOOBb392a_9BsW-Qg7SNZ57YRZBpPcObBJgeqLNHi10v5iIBiL2dmWU6gJmEPQxkj5DlOxEb9v7r9YLr37Rem3AbUaHCBZ3jYWWZgC-JB76JoVYl5TxDfNLlF9e8CD5tAHlwx94lpXUPhiELTVwxtIixOudeCwcZQrfP82y0?></g></svg>