<svg xmlns="http://www.w3.org/2000/svg" xmlns:xlink="http://www.w3.org/1999/xlink" contentStyleType="text/css" data-diagram-type="CLASS" height="508px" preserveAspectRatio="none" style="width:717px;height:508px;background:#FFFFFF;" version="1.1" viewBox="0 0 717 508" width="717px" zoomAndPan="magnify"><?plantuml 1.2026.4beta2?><defs/><g><!--cluster Notadesigner--><g class="cluster" data-qualified-name="Notadesigner" data-source-line="2" id="ent0003"><path d="M98.77,6 L204.2807,6 A5.25,5.25 0 0 1 207.7807,9.5 L214.7807,28.2969 L698.77,28.2969 A3.5,3.5 0 0 1 702.27,31.7969 L702.27,490.39 A3.5,3.5 0 0 1 698.77,493.89 L98.77,493.89 A3.5,3.5 0 0 1 95.27,490.39 L95.27,9.5 A3.5,3.5 0 0 1 98.77,6" fill="none" style="stroke:#696969;stroke-width:1;"/><line style="stroke:#696969;stroke-width:1;" x1="95.27" x2="214.7807" y1="28.2969" y2="28.2969"/><text fill="#000000" font-family="sans-serif" font-size="14" font-weight="700" lengthAdjust="spacing" textLength="106.5107" x="99.27" y="20.9951">Notadesigner</text></g><!--cluster Activities--><g class="cluster" data-qualified-name="Notadesigner.Activities" data-source-line="2" id="ent0004"><path d="M122.77,197 L195.6391,197 A5.25,5.25 0 0 1 199.1391,200.5 L206.1391,219.2969 L674.77,219.2969 A3.5,3.5 0 0 1 678.27,222.7969 L678.27,466.39 A3.5,3.5 0 0 1 674.77,469.89 L122.77,469.89 A3.5,3.5 0 0 1 119.27,466.39 L119.27,200.5 A3.5,3.5 0 0 1 122.77,197" fill="none" style="stroke:#696969;stroke-width:1;"/><line style="stroke:#696969;stroke-width:1;" x1="119.27" x2="206.1391" y1="219.2969" y2="219.2969"/><text fill="#000000" font-family="sans-serif" font-size="14" font-weight="700" lengthAdjust="spacing" textLength="73.8691" x="123.27" y="211.9951">Activities</text></g><!--cluster Text--><g class="cluster" data-qualified-name="Notadesigner.Text" data-source-line="19" id="ent0011"><path d="M284.77,49 L318.5376,49 A5.25,5.25 0 0 1 322.0376,52.5 L329.0376,71.2969 L664.77,71.2969 A3.5,3.5 0 0 1 668.27,74.7969 L668.27,144.5 A3.5,3.5 0 0 1 664.77,148 L284.77,148 A3.5,3.5 0 0 1 281.27,144.5 L281.27,52.5 A3.5,3.5 0 0 1 284.77,49" fill="none" style="stroke:#696969;stroke-width:1;"/><line style="stroke:#696969;stroke-width:1;" x1="281.27" x2="329.0376" y1="71.2969" y2="71.2969"/><text fill="#000000" font-family="sans-serif" font-size="14" font-weight="700" lengthAdjust="spacing" textLength="34.7676" x="285.27" y="63.9951">Text</text></g><!--class IActivity--><g class="entity" data-qualified-name="Notadesigner.Activities.IActivity" data-source-line="2" id="ent0002"><rect fill="#F1F1F1" height="64.2969" rx="3.5" ry="3.5" style="stroke:#181818;stroke-width:0.5;" width="340.7197" x="257.91" y="389.59"/><ellipse cx="359.6258" cy="405.59" fill="#B4A7E5" rx="11" ry="11" style="stroke:#181818;stroke-width:1;"/><path d="M355.5477,401.3556 L355.5477,399.1994 L362.9383,399.1994 L362.9383,401.3556 L360.4696,401.3556 L360.4696,409.4338 L362.9383,409.4338 L362.9383,411.59 L355.5477,411.59 L355.5477,409.4338 L358.0164,409.4338 L358.0164,401.3556 L355.5477,401.3556 Z " fill="#000000"/><text fill="#000000" font-family="sans-serif" font-size="14" font-style="italic" lengthAdjust="spacing" textLength="56.7314" x="380.1258" y="410.4367">IActivity</text><rect fill="#FFFFFF" height="15.9688" style="stroke:#181818;stroke-width:1;stroke-dasharray:2,2;" width="70.0566" x="531.5731" y="386.59"/><text fill="#000000" font-family="sans-serif" font-size="12" font-style="italic" lengthAdjust="spacing" textLength="68.0566" x="532.5731" y="398.7287">tparameter</text><line style="stroke:#181818;stroke-width:0.5;" x1="258.91" x2="597.6297" y1="421.59" y2="421.59"/><line style="stroke:#181818;stroke-width:0.5;" x1="258.91" x2="597.6297" y1="429.59" y2="429.59"/><g data-visibility-modifier="PUBLIC_METHOD"><ellipse cx="268.91" cy="443.2384" fill="#84BE84" rx="3" ry="3" style="stroke:#038048;stroke-width:1;"/></g><text fill="#000000" font-family="sans-serif" font-size="14" lengthAdjust="spacing" textLength="314.7197" x="277.91" y="446.5851">Execute(parameter:TParameter):TParameter</text></g><!--class Sequencer--><g class="entity" data-qualified-name="Notadesigner.Activities.Sequencer" data-source-line="6" id="ent0005"><rect fill="#F1F1F1" height="80.5938" rx="3.5" ry="3.5" style="stroke:#181818;stroke-width:0.5;" width="302.8213" x="134.85" y="232"/><ellipse cx="208.5761" cy="248" fill="#ADD1B2" rx="11" ry="11" style="stroke:#181818;stroke-width:1;"/><path d="M211.5448,253.6406 Q210.9667,253.9375 210.3261,254.0781 Q209.6854,254.2344 208.9823,254.2344 Q206.4823,254.2344 205.1542,252.5938 Q203.8417,250.9375 203.8417,247.8125 Q203.8417,244.6875 205.1542,243.0313 Q206.4823,241.375 208.9823,241.375 Q209.6854,241.375 210.3261,241.5313 Q210.9823,241.6875 211.5448,241.9844 L211.5448,244.7031 Q210.9198,244.125 210.3261,243.8594 Q209.7323,243.5781 209.1073,243.5781 Q207.7636,243.5781 207.0761,244.6563 Q206.3886,245.7188 206.3886,247.8125 Q206.3886,249.9063 207.0761,250.9844 Q207.7636,252.0469 209.1073,252.0469 Q209.7323,252.0469 210.3261,251.7813 Q210.9198,251.5 211.5448,250.9219 L211.5448,253.6406 Z " fill="#000000"/><text fill="#000000" font-family="sans-serif" font-size="14" lengthAdjust="spacing" textLength="74.8125" x="229.0761" y="252.8467">Sequencer</text><rect fill="#FFFFFF" height="15.9688" style="stroke:#181818;stroke-width:1;stroke-dasharray:2,2;" width="70.0566" x="370.6146" y="229"/><text fill="#000000" font-family="sans-serif" font-size="12" font-style="italic" lengthAdjust="spacing" textLength="68.0566" x="371.6146" y="241.1387">tparameter</text><line style="stroke:#181818;stroke-width:0.5;" x1="135.85" x2="436.6713" y1="264" y2="264"/><line style="stroke:#181818;stroke-width:0.5;" x1="135.85" x2="436.6713" y1="272" y2="272"/><g data-visibility-modifier="PUBLIC_METHOD"><ellipse cx="145.85" cy="285.6484" fill="#84BE84" rx="3" ry="3" style="stroke:#038048;stroke-width:1;"/></g><text fill="#000000" font-family="sans-serif" font-size="14" lengthAdjust="spacing" textLength="254.1875" x="154.85" y="288.9951">Add(activity:IActivity&lt;tparameter&gt;)</text><g data-visibility-modifier="PUBLIC_METHOD"><ellipse cx="145.85" cy="301.9453" fill="#84BE84" rx="3" ry="3" style="stroke:#038048;stroke-width:1;"/></g><text fill="#000000" font-family="sans-serif" font-size="14" lengthAdjust="spacing" textLength="276.8213" x="154.85" y="305.292">Execute(input:TParameter):TParameter</text></g><!--class Activity--><g class="entity" data-qualified-name="Notadesigner.Activities.Activity" data-source-line="11" id="ent0006"><rect fill="#F1F1F1" height="64.2969" rx="3.5" ry="3.5" style="stroke:#181818;stroke-width:0.5;" width="189.5908" x="472.47" y="240.15"/><ellipse cx="502.2892" cy="256.15" fill="#A9DCDF" rx="11" ry="11" style="stroke:#181818;stroke-width:1;"/><path d="M502.3986,251.4937 L501.2424,256.5719 L503.5705,256.5719 L502.3986,251.4937 Z M500.9142,249.2594 L503.8986,249.2594 L507.258,261.65 L504.8049,261.65 L504.0392,258.5875 L500.758,258.5875 L500.008,261.65 L497.5705,261.65 L500.9142,249.2594 Z " fill="#000000"/><text fill="#000000" font-family="sans-serif" font-size="14" font-style="italic" lengthAdjust="spacing" textLength="52.6025" x="519.5824" y="260.9967">Activity</text><rect fill="#FFFFFF" height="15.9688" style="stroke:#181818;stroke-width:1;stroke-dasharray:2,2;" width="70.0566" x="595.0042" y="237.15"/><text fill="#000000" font-family="sans-serif" font-size="12" font-style="italic" lengthAdjust="spacing" textLength="68.0566" x="596.0042" y="249.2887">tparameter</text><line style="stroke:#181818;stroke-width:0.5;" x1="473.47" x2="661.0608" y1="272.15" y2="272.15"/><line style="stroke:#181818;stroke-width:0.5;" x1="473.47" x2="661.0608" y1="280.15" y2="280.15"/><g data-visibility-modifier="PROTECTED_METHOD"><polygon fill="#FFFF44" points="483.47,288.7984,487.47,292.7984,483.47,296.7984,479.47,292.7984" style="stroke:#B38D22;stroke-width:1;"/></g><text fill="#000000" font-family="sans-serif" font-size="14" lengthAdjust="spacing" textLength="163.5908" x="492.47" y="297.1451">OnExecuteCompleted()</text></g><!--class HyperlinkTransformation--><g class="entity" data-qualified-name="Notadesigner.Text.HyperlinkTransformation" data-source-line="19" id="ent0010"><rect fill="#F1F1F1" height="48" rx="3.5" ry="3.5" style="stroke:#181818;stroke-width:0.5;" width="206.166" x="297.18" y="84"/><ellipse cx="312.18" cy="100" fill="#ADD1B2" rx="11" ry="11" style="stroke:#181818;stroke-width:1;"/><path d="M315.1488,105.6406 Q314.5706,105.9375 313.93,106.0781 Q313.2894,106.2344 312.5863,106.2344 Q310.0863,106.2344 308.7581,104.5938 Q307.4456,102.9375 307.4456,99.8125 Q307.4456,96.6875 308.7581,95.0313 Q310.0863,93.375 312.5863,93.375 Q313.2894,93.375 313.93,93.5313 Q314.5863,93.6875 315.1488,93.9844 L315.1488,96.7031 Q314.5238,96.125 313.93,95.8594 Q313.3363,95.5781 312.7113,95.5781 Q311.3675,95.5781 310.68,96.6563 Q309.9925,97.7188 309.9925,99.8125 Q309.9925,101.9063 310.68,102.9844 Q311.3675,104.0469 312.7113,104.0469 Q313.3363,104.0469 313.93,103.7813 Q314.5238,103.5 315.1488,102.9219 L315.1488,105.6406 Z " fill="#000000"/><text fill="#000000" font-family="sans-serif" font-size="14" lengthAdjust="spacing" textLength="174.166" x="326.18" y="104.8467">HyperlinkTransformation</text><line style="stroke:#181818;stroke-width:0.5;" x1="298.18" x2="502.346" y1="116" y2="116"/><line style="stroke:#181818;stroke-width:0.5;" x1="298.18" x2="502.346" y1="124" y2="124"/></g><!--class DedupFilter--><g class="entity" data-qualified-name="Notadesigner.Text.DedupFilter" data-source-line="20" id="ent0013"><rect fill="#F1F1F1" height="48" rx="3.5" ry="3.5" style="stroke:#181818;stroke-width:0.5;" width="113.7305" x="538.4" y="84"/><ellipse cx="553.4" cy="100" fill="#ADD1B2" rx="11" ry="11" style="stroke:#181818;stroke-width:1;"/><path d="M556.3688,105.6406 Q555.7906,105.9375 555.15,106.0781 Q554.5094,106.2344 553.8063,106.2344 Q551.3063,106.2344 549.9781,104.5938 Q548.6656,102.9375 548.6656,99.8125 Q548.6656,96.6875 549.9781,95.0313 Q551.3063,93.375 553.8063,93.375 Q554.5094,93.375 555.15,93.5313 Q555.8063,93.6875 556.3688,93.9844 L556.3688,96.7031 Q555.7438,96.125 555.15,95.8594 Q554.5563,95.5781 553.9313,95.5781 Q552.5875,95.5781 551.9,96.6563 Q551.2125,97.7188 551.2125,99.8125 Q551.2125,101.9063 551.9,102.9844 Q552.5875,104.0469 553.9313,104.0469 Q554.5563,104.0469 555.15,103.7813 Q555.7438,103.5 556.3688,102.9219 L556.3688,105.6406 Z " fill="#000000"/><text fill="#000000" font-family="sans-serif" font-size="14" lengthAdjust="spacing" textLength="81.7305" x="567.4" y="104.8467">DedupFilter</text><line style="stroke:#181818;stroke-width:0.5;" x1="539.4" x2="651.1305" y1="116" y2="116"/><line style="stroke:#181818;stroke-width:0.5;" x1="539.4" x2="651.1305" y1="124" y2="124"/></g><!--class Client--><g class="entity" data-qualified-name="Client" data-source-line="15" id="ent0007"><rect fill="#98FB98" height="48" rx="3.5" ry="3.5" style="stroke:#181818;stroke-width:0.5;" width="72.5303" x="7" y="84"/><ellipse cx="22" cy="100" fill="#ADD1B2" rx="11" ry="11" style="stroke:#181818;stroke-width:1;"/><path d="M24.9688,105.6406 Q24.3906,105.9375 23.75,106.0781 Q23.1094,106.2344 22.4063,106.2344 Q19.9063,106.2344 18.5781,104.5938 Q17.2656,102.9375 17.2656,99.8125 Q17.2656,96.6875 18.5781,95.0313 Q19.9063,93.375 22.4063,93.375 Q23.1094,93.375 23.75,93.5313 Q24.4063,93.6875 24.9688,93.9844 L24.9688,96.7031 Q24.3438,96.125 23.75,95.8594 Q23.1563,95.5781 22.5313,95.5781 Q21.1875,95.5781 20.5,96.6563 Q19.8125,97.7188 19.8125,99.8125 Q19.8125,101.9063 20.5,102.9844 Q21.1875,104.0469 22.5313,104.0469 Q23.1563,104.0469 23.75,103.7813 Q24.3438,103.5 24.9688,102.9219 L24.9688,105.6406 Z " fill="#000000"/><text fill="#000000" font-family="sans-serif" font-size="14" lengthAdjust="spacing" textLength="40.5303" x="36" y="104.8467">Client</text><line style="stroke:#181818;stroke-width:0.5;" x1="8" x2="78.5303" y1="116" y2="116"/><line style="stroke:#181818;stroke-width:0.5;" x1="8" x2="78.5303" y1="124" y2="124"/></g><!--link Activity to IActivity--><g class="link" data-entity-1="ent0006" data-entity-2="ent0002" data-link-type="extension" data-source-line="17" id="lnk8"><path codeLine="17" d="M537.45,304.93 C513.99,329.8 493.8184,351.2035 470.3784,376.0635" fill="none" id="Activity-to-IActivity" style="stroke:#454645;stroke-width:1;stroke-dasharray:7,7;"/><polygon fill="none" points="458.03,389.16,474.7439,380.1797,466.0129,371.9474,458.03,389.16" style="stroke:#454645;stroke-width:1;"/></g><!--link Sequencer to IActivity--><g class="link" data-entity-1="ent0005" data-entity-2="ent0002" data-link-type="dependency" data-source-line="18" id="lnk9"><path codeLine="18" d="M324.32,312.81 C347.49,336.86 372.5083,362.8379 394.0483,385.2079" fill="none" id="Sequencer-to-IActivity" style="stroke:#454645;stroke-width:1;"/><polygon fill="#454645" points="398.21,389.53,394.8488,380.2724,394.7419,385.9283,389.0861,385.8214,398.21,389.53" style="stroke:#454645;stroke-width:1;"/><text fill="#000000" font-family="sans-serif" font-size="13" lengthAdjust="spacing" textLength="58.9443" x="366.27" y="355.6569">executes</text></g><!--link HyperlinkTransformation to Activity--><g class="link" data-entity-1="ent0010" data-entity-2="ent0006" data-link-type="extension" data-source-line="19" id="lnk12"><path codeLine="19" d="M424.19,132.25 C453.23,160.48 489.4204,195.6464 521.8704,227.1764" fill="none" id="HyperlinkTransformation-to-Activity" style="stroke:#454645;stroke-width:1;stroke-dasharray:7,7;"/><polygon fill="none" points="534.78,239.72,526.0516,222.8732,517.6892,231.4796,534.78,239.72" style="stroke:#454645;stroke-width:1;"/></g><!--link DedupFilter to Activity--><g class="link" data-entity-1="ent0013" data-entity-2="ent0006" data-link-type="extension" data-source-line="20" id="lnk14"><path codeLine="20" d="M591.25,132.25 C586.38,160.48 581.2104,190.4521 575.7704,221.9821" fill="none" id="DedupFilter-to-Activity" style="stroke:#454645;stroke-width:1;stroke-dasharray:7,7;"/><polygon fill="none" points="572.71,239.72,581.683,223.0022,569.8578,220.9619,572.71,239.72" style="stroke:#454645;stroke-width:1;"/></g><!--link Client to Sequencer--><g class="link" data-entity-1="ent0007" data-entity-2="ent0005" data-link-type="dependency" data-source-line="22" id="lnk15"><path codeLine="22" d="M67.62,132.43 C83.61,147.23 105.37,166.27 126.27,181 C152.07,199.2 176.5956,213.9233 203.4056,228.7033" fill="none" id="Client-to-Sequencer" style="stroke:#454645;stroke-width:1;"/><polygon fill="#454645" points="208.66,231.6,202.7095,223.752,204.2813,229.1861,198.8472,230.7579,208.66,231.6" style="stroke:#454645;stroke-width:1;"/><text fill="#000000" font-family="sans-serif" font-size="13" lengthAdjust="spacing" textLength="29.1104" x="127.27" y="177.0669">calls</text></g><!--reverse link Client to Sequencer--><g class="link" data-entity-1="ent0007" data-entity-2="ent0005" data-link-type="dependency" data-source-line="23" id="lnk17"><path codeLine="23" d="M85.525,125.3419 C109.525,135.2619 135.53,147.4 161.27,164 C191.67,183.61 222.55,210.04 246.01,231.76" fill="none" id="Client-backto-Sequencer" style="stroke:#454645;stroke-width:1;"/><polygon fill="#454645" points="79.98,123.05,86.7695,130.1846,84.6008,124.9599,89.8255,122.7912,79.98,123.05" style="stroke:#454645;stroke-width:1;"/><text fill="#000000" font-family="sans-serif" font-size="13" lengthAdjust="spacing" textLength="124.522" x="184.27" y="177.0669">notifies completion</text></g><?plantuml-src ZP91JiCm44NtFiMWRXAXv00HgbGL46m0YLp0jIV5mXaRUr9Q0NV7ee42QfFiHYFx__U_VSPFs29ip2f8Oc68CJHI8TmvbXgZMHE6Sg7OR0mRZELjF-yksCiWMqmNvl0cpg-sg3h6x6TRrG_VO_vh5Xz2A2jZF6dnY2yTaiBmtsAXTIPx--eeI7xWCEGx7c2GgyWXgS4mp8cuCxYdtcdfMc_JNcVv8TlI6YI6cPSMrm6HX1XpWB9ydu_tBaPhWwAOe0CLu3v0_2jPuvRBcvt7O0qzr-bVnCQ5Lh9nDCnu7F5Bxn9rvw-DJVLDr11zXOLshpGGw12x0YMjZLCAwdnIx0qg8CUcIIT0xPyo1Vq4?></g></svg>