<svg xmlns="http://www.w3.org/2000/svg" xmlns:xlink="http://www.w3.org/1999/xlink" contentStyleType="text/css" data-diagram-type="CLASS" height="344px" preserveAspectRatio="none" style="width:480px;height:344px;background:#FFFFFF;" version="1.1" viewBox="0 0 480 344" width="480px" zoomAndPan="magnify"><?plantuml 1.2026.4beta2?><defs/><g><!--class DiskInfoProvider--><g class="entity" data-qualified-name="DiskInfoProvider" data-source-line="3" id="ent0002"><rect fill="#F1F1F1" height="64.2969" rx="3.5" ry="3.5" style="stroke:#181818;stroke-width:0.5;" width="146.7617" x="186.68" y="7"/><ellipse cx="201.68" cy="23" fill="#ADD1B2" rx="11" ry="11" style="stroke:#181818;stroke-width:1;"/><path d="M204.6488,28.6406 Q204.0706,28.9375 203.43,29.0781 Q202.7894,29.2344 202.0863,29.2344 Q199.5863,29.2344 198.2581,27.5938 Q196.9456,25.9375 196.9456,22.8125 Q196.9456,19.6875 198.2581,18.0313 Q199.5863,16.375 202.0863,16.375 Q202.7894,16.375 203.43,16.5313 Q204.0863,16.6875 204.6488,16.9844 L204.6488,19.7031 Q204.0238,19.125 203.43,18.8594 Q202.8363,18.5781 202.2113,18.5781 Q200.8675,18.5781 200.18,19.6563 Q199.4925,20.7188 199.4925,22.8125 Q199.4925,24.9063 200.18,25.9844 Q200.8675,27.0469 202.2113,27.0469 Q202.8363,27.0469 203.43,26.7813 Q204.0238,26.5 204.6488,25.9219 L204.6488,28.6406 Z " fill="#000000"/><text fill="#000000" font-family="sans-serif" font-size="14" lengthAdjust="spacing" textLength="114.7617" x="215.68" y="27.8467">DiskInfoProvider</text><line style="stroke:#181818;stroke-width:0.5;" x1="187.68" x2="332.4417" y1="39" y2="39"/><line style="stroke:#181818;stroke-width:0.5;" x1="187.68" x2="332.4417" y1="47" y2="47"/><g data-visibility-modifier="PUBLIC_METHOD"><ellipse cx="197.68" cy="60.6484" fill="#84BE84" rx="3" ry="3" style="stroke:#038048;stroke-width:1;"/></g><text fill="#000000" font-family="sans-serif" font-size="14" lengthAdjust="spacing" textLength="100.5703" x="206.68" y="63.9951">CollectAsync()</text></g><!--class Completed--><g class="entity" data-qualified-name="Completed" data-source-line="7" id="ent0003"><rect fill="#F1F1F1" height="56.2656" rx="3.5" ry="3.5" style="stroke:#181818;stroke-width:0.5;" width="108.3574" x="356.88" y="273.29"/><ellipse cx="371.88" cy="293.4228" fill="#ADD1B2" rx="11" ry="11" style="stroke:#181818;stroke-width:1;"/><path d="M374.8488,299.0634 Q374.2706,299.3603 373.63,299.5009 Q372.9894,299.6572 372.2863,299.6572 Q369.7863,299.6572 368.4581,298.0166 Q367.1456,296.3603 367.1456,293.2353 Q367.1456,290.1103 368.4581,288.4541 Q369.7863,286.7978 372.2863,286.7978 Q372.9894,286.7978 373.63,286.9541 Q374.2863,287.1103 374.8488,287.4072 L374.8488,290.1259 Q374.2238,289.5478 373.63,289.2822 Q373.0363,289.0009 372.4113,289.0009 Q371.0675,289.0009 370.38,290.0791 Q369.6925,291.1416 369.6925,293.2353 Q369.6925,295.3291 370.38,296.4072 Q371.0675,297.4697 372.4113,297.4697 Q373.0363,297.4697 373.63,297.2041 Q374.2238,296.9228 374.8488,296.3447 L374.8488,299.0634 Z " fill="#000000"/><text fill="#000000" font-family="sans-serif" font-size="12" font-style="italic" lengthAdjust="spacing" textLength="48.8613" x="399.628" y="289.4287">&#171;event&#187;</text><text fill="#000000" font-family="sans-serif" font-size="14" lengthAdjust="spacing" textLength="76.3574" x="385.88" y="305.2539">Completed</text><line style="stroke:#181818;stroke-width:0.5;" x1="357.88" x2="464.2374" y1="313.5556" y2="313.5556"/><line style="stroke:#181818;stroke-width:0.5;" x1="357.88" x2="464.2374" y1="321.5556" y2="321.5556"/></g><!--class ManagementClass--><g class="entity" data-qualified-name="ManagementClass" data-source-line="9" id="ent0004"><rect fill="#F1F1F1" height="48" rx="3.5" ry="3.5" style="stroke:#181818;stroke-width:0.5;" width="161.0557" x="179.53" y="148.29"/><ellipse cx="194.53" cy="164.29" fill="#ADD1B2" rx="11" ry="11" style="stroke:#181818;stroke-width:1;"/><path d="M197.4988,169.9306 Q196.9206,170.2275 196.28,170.3681 Q195.6394,170.5244 194.9363,170.5244 Q192.4363,170.5244 191.1081,168.8838 Q189.7956,167.2275 189.7956,164.1025 Q189.7956,160.9775 191.1081,159.3213 Q192.4363,157.665 194.9363,157.665 Q195.6394,157.665 196.28,157.8213 Q196.9363,157.9775 197.4988,158.2744 L197.4988,160.9931 Q196.8738,160.415 196.28,160.1494 Q195.6863,159.8681 195.0613,159.8681 Q193.7175,159.8681 193.03,160.9463 Q192.3425,162.0088 192.3425,164.1025 Q192.3425,166.1963 193.03,167.2744 Q193.7175,168.3369 195.0613,168.3369 Q195.6863,168.3369 196.28,168.0713 Q196.8738,167.79 197.4988,167.2119 L197.4988,169.9306 Z " fill="#000000"/><text fill="#000000" font-family="sans-serif" font-size="14" lengthAdjust="spacing" textLength="129.0557" x="208.53" y="169.1367">ManagementClass</text><line style="stroke:#181818;stroke-width:0.5;" x1="180.53" x2="339.5857" y1="180.29" y2="180.29"/><line style="stroke:#181818;stroke-width:0.5;" x1="180.53" x2="339.5857" y1="188.29" y2="188.29"/></g><!--class ManagementOperationObserver--><g class="entity" data-qualified-name="ManagementOperationObserver" data-source-line="10" id="ent0006"><rect fill="#F1F1F1" height="48" rx="3.5" ry="3.5" style="stroke:#181818;stroke-width:0.5;" width="258.1191" x="7" y="277.43"/><ellipse cx="22" cy="293.43" fill="#ADD1B2" rx="11" ry="11" style="stroke:#181818;stroke-width:1;"/><path d="M24.9688,299.0706 Q24.3906,299.3675 23.75,299.5081 Q23.1094,299.6644 22.4063,299.6644 Q19.9063,299.6644 18.5781,298.0238 Q17.2656,296.3675 17.2656,293.2425 Q17.2656,290.1175 18.5781,288.4613 Q19.9063,286.805 22.4063,286.805 Q23.1094,286.805 23.75,286.9613 Q24.4063,287.1175 24.9688,287.4144 L24.9688,290.1331 Q24.3438,289.555 23.75,289.2894 Q23.1563,289.0081 22.5313,289.0081 Q21.1875,289.0081 20.5,290.0863 Q19.8125,291.1488 19.8125,293.2425 Q19.8125,295.3363 20.5,296.4144 Q21.1875,297.4769 22.5313,297.4769 Q23.1563,297.4769 23.75,297.2113 Q24.3438,296.93 24.9688,296.3519 L24.9688,299.0706 Z " fill="#000000"/><text fill="#000000" font-family="sans-serif" font-size="14" lengthAdjust="spacing" textLength="226.1191" x="36" y="298.2767">ManagementOperationObserver</text><line style="stroke:#181818;stroke-width:0.5;" x1="8" x2="264.1191" y1="309.43" y2="309.43"/><line style="stroke:#181818;stroke-width:0.5;" x1="8" x2="264.1191" y1="317.43" y2="317.43"/></g><!--class Client--><g class="entity" data-qualified-name="Client" data-source-line="13" id="ent0009"><rect fill="#98FB98" height="48" rx="3.5" ry="3.5" style="stroke:#181818;stroke-width:0.5;" width="72.5303" x="48.79" y="15.15"/><ellipse cx="63.79" cy="31.15" fill="#ADD1B2" rx="11" ry="11" style="stroke:#181818;stroke-width:1;"/><path d="M66.7587,36.7906 Q66.1806,37.0875 65.54,37.2281 Q64.8994,37.3844 64.1962,37.3844 Q61.6963,37.3844 60.3681,35.7437 Q59.0556,34.0875 59.0556,30.9625 Q59.0556,27.8375 60.3681,26.1812 Q61.6963,24.525 64.1962,24.525 Q64.8994,24.525 65.54,24.6812 Q66.1962,24.8375 66.7587,25.1344 L66.7587,27.8531 Q66.1337,27.275 65.54,27.0094 Q64.9462,26.7281 64.3212,26.7281 Q62.9775,26.7281 62.29,27.8062 Q61.6025,28.8687 61.6025,30.9625 Q61.6025,33.0562 62.29,34.1344 Q62.9775,35.1969 64.3212,35.1969 Q64.9462,35.1969 65.54,34.9312 Q66.1337,34.65 66.7587,34.0719 L66.7587,36.7906 Z " fill="#000000"/><text fill="#000000" font-family="sans-serif" font-size="14" lengthAdjust="spacing" textLength="40.5303" x="77.79" y="35.9967">Client</text><line style="stroke:#181818;stroke-width:0.5;" x1="49.79" x2="120.3203" y1="47.15" y2="47.15"/><line style="stroke:#181818;stroke-width:0.5;" x1="49.79" x2="120.3203" y1="55.15" y2="55.15"/></g><!--link DiskInfoProvider to ManagementClass--><g class="link" data-entity-1="ent0002" data-entity-2="ent0004" data-link-type="dependency" data-source-line="9" id="lnk5"><path codeLine="9" d="M260.06,71.56 C260.06,95.05 260.06,120.66 260.06,141.94" fill="none" id="DiskInfoProvider-to-ManagementClass" style="stroke:#454645;stroke-width:1;"/><polygon fill="#454645" points="260.06,147.94,264.06,138.94,260.06,142.94,256.06,138.94,260.06,147.94" style="stroke:#454645;stroke-width:1;"/><text fill="#000000" font-family="sans-serif" font-size="13" lengthAdjust="spacing" textLength="41.5518" x="261.06" y="114.3569">create</text></g><!--link DiskInfoProvider to ManagementOperationObserver--><g class="link" data-entity-1="ent0002" data-entity-2="ent0006" data-link-type="dependency" data-source-line="10" id="lnk7"><path codeLine="10" d="M196.09,71.63 C166.91,89.69 135.3,115.37 119.06,148.29 C98.43,190.12 111.9271,240.4957 123.8071,271.5657" fill="none" id="DiskInfoProvider-to-ManagementOperationObserver" style="stroke:#454645;stroke-width:1;"/><polygon fill="#454645" points="125.95,277.17,126.4719,267.335,124.1643,272.4998,118.9995,270.1921,125.95,277.17" style="stroke:#454645;stroke-width:1;"/><text fill="#000000" font-family="sans-serif" font-size="13" lengthAdjust="spacing" textLength="41.5518" x="120.06" y="176.8569">create</text></g><!--link DiskInfoProvider to Completed--><g class="link" data-entity-1="ent0002" data-entity-2="ent0003" data-link-type="dependency" data-source-line="11" id="lnk8"><path codeLine="11" d="M294.75,71.44 C315.47,91.68 340.99,119.53 358.06,148.29 C381.97,188.58 395.8552,235.4516 403.5852,267.0716" fill="none" id="DiskInfoProvider-to-Completed" style="stroke:#454645;stroke-width:1;stroke-dasharray:7,7;"/><polygon fill="#454645" points="405.01,272.9,406.7583,263.2076,403.8226,268.043,398.9872,265.1073,405.01,272.9" style="stroke:#454645;stroke-width:1;"/><text fill="#000000" font-family="sans-serif" font-size="13" lengthAdjust="spacing" textLength="44.3066" x="382.06" y="176.8569">handle</text></g><!--link Client to DiskInfoProvider--><g class="link" data-entity-1="ent0009" data-entity-2="ent0002" data-link-type="dependency" data-source-line="15" id="lnk10"><path codeLine="15" d="M121.75,39.15 C140.49,39.15 157.99,39.15 180.27,39.15" fill="none" id="Client-to-DiskInfoProvider" style="stroke:#454645;stroke-width:1;"/><polygon fill="#454645" points="186.27,39.15,177.27,35.15,181.27,39.15,177.27,43.15,186.27,39.15" style="stroke:#454645;stroke-width:1;"/><text fill="#000000" font-family="sans-serif" font-size="13" lengthAdjust="spacing" textLength="29.7832" x="139.5" y="32.2169">uses</text></g><!--link ManagementOperationObserver to Completed--><g class="link" data-entity-1="ent0006" data-entity-2="ent0003" data-link-type="dependency" data-source-line="17" id="lnk11"><path codeLine="17" d="M265.51,301.43 C297.55,301.43 324.17,301.43 350.39,301.43" fill="none" id="ManagementOperationObserver-to-Completed" style="stroke:#454645;stroke-width:1;"/><polygon fill="#454645" points="356.39,301.43,347.39,297.43,351.39,301.43,347.39,305.43,356.39,301.43" style="stroke:#454645;stroke-width:1;"/><text fill="#000000" font-family="sans-serif" font-size="13" lengthAdjust="spacing" textLength="55.3389" x="283.5" y="294.4969">dispatch</text></g><!--link ManagementClass to ManagementOperationObserver--><g class="link" data-entity-1="ent0004" data-entity-2="ent0006" data-link-type="dependency" data-source-line="19" id="lnk12"><path codeLine="19" d="M237.32,196.61 C214.94,219.55 185.1688,250.0742 162.8488,272.9642" fill="none" id="ManagementClass-to-ManagementOperationObserver" style="stroke:#454645;stroke-width:1;"/><polygon fill="#454645" points="158.66,277.26,167.8071,273.6089,162.1507,273.6802,162.0794,268.0238,158.66,277.26" style="stroke:#454645;stroke-width:1;"/><text fill="#000000" font-family="sans-serif" font-size="13" lengthAdjust="spacing" textLength="37.1719" x="207.06" y="239.3569">notify</text></g><?plantuml-src XO_TQi9048NlvoccU6CfyG6214gyyKBq5SRDCLbSPyFk693ITpVOAW5flPqvt_bvimudyE3tITI8N92SUUNpSQs7k4jny0qIVz577KE0iyzyKJT_f--xjewdFi3Gy7A90MfLHVHaK1GLRqIb7TFKwXjPiaiGmolrjaSIyr6t-umqZF-_oSMYcZGgkHDj0XvTWn_zUDPBG9i09Vez5SctdOsnJuubdpCoqNzz7lGqkl6v5tFT5FqP_dgUHlE7onK0?></g></svg>