<svg xmlns="http://www.w3.org/2000/svg" xmlns:xlink="http://www.w3.org/1999/xlink" contentStyleType="text/css" data-diagram-type="CLASS" height="165px" preserveAspectRatio="none" style="width:297px;height:165px;background:#FFFFFF;" version="1.1" viewBox="0 0 297 165" width="297px" zoomAndPan="magnify"><?plantuml 1.2026.4beta2?><defs/><g><!--class ConnectionPool--><g class="entity" data-qualified-name="ConnectionPool" data-source-line="3" id="ent0002"><rect fill="#F1F1F1" height="145.7813" rx="3.5" ry="3.5" style="stroke:#181818;stroke-width:0.5;" width="277.1182" x="7" y="7"/><ellipse cx="86.9702" cy="23" fill="#ADD1B2" rx="11" ry="11" style="stroke:#181818;stroke-width:1;"/><path d="M89.939,28.6406 Q89.3608,28.9375 88.7202,29.0781 Q88.0796,29.2344 87.3765,29.2344 Q84.8765,29.2344 83.5483,27.5938 Q82.2358,25.9375 82.2358,22.8125 Q82.2358,19.6875 83.5483,18.0313 Q84.8765,16.375 87.3765,16.375 Q88.0796,16.375 88.7202,16.5313 Q89.3765,16.6875 89.939,16.9844 L89.939,19.7031 Q89.314,19.125 88.7202,18.8594 Q88.1265,18.5781 87.5015,18.5781 Q86.1577,18.5781 85.4702,19.6563 Q84.7827,20.7188 84.7827,22.8125 Q84.7827,24.9063 85.4702,25.9844 Q86.1577,27.0469 87.5015,27.0469 Q88.1265,27.0469 88.7202,26.7813 Q89.314,26.5 89.939,25.9219 L89.939,28.6406 Z " fill="#000000"/><text fill="#000000" font-family="sans-serif" font-size="14" lengthAdjust="spacing" textLength="108.6777" x="107.4702" y="27.8467">ConnectionPool</text><line style="stroke:#181818;stroke-width:0.5;" x1="8" x2="283.1182" y1="39" y2="39"/><g data-visibility-modifier="PRIVATE_FIELD"><rect fill="none" height="6" style="stroke:#C82930;stroke-width:1;" width="6" x="15" y="49.6484"/></g><text fill="#000000" font-family="sans-serif" font-size="14" lengthAdjust="spacing" text-decoration="underline" textLength="172.7031" x="27" y="55.9951">instance:ConnectionPool</text><g data-visibility-modifier="PRIVATE_FIELD"><rect fill="none" height="6" style="stroke:#C82930;stroke-width:1;" width="6" x="15" y="65.9453"/></g><text fill="#000000" font-family="sans-serif" font-size="14" lengthAdjust="spacing" textLength="92.0801" x="27" y="72.292">released:ISet</text><g data-visibility-modifier="PRIVATE_FIELD"><rect fill="none" height="6" style="stroke:#C82930;stroke-width:1;" width="6" x="15" y="82.2422"/></g><text fill="#000000" font-family="sans-serif" font-size="14" lengthAdjust="spacing" textLength="93.0166" x="27" y="88.5889">acquired:ISet</text><g data-visibility-modifier="PUBLIC_FIELD"><ellipse cx="18" cy="101.5391" fill="none" rx="3" ry="3" style="stroke:#038048;stroke-width:1;"/></g><text fill="#000000" font-family="sans-serif" font-size="14" lengthAdjust="spacing" text-decoration="underline" textLength="172.9424" x="27" y="104.8857">Instance:ConnectionPool</text><line style="stroke:#181818;stroke-width:0.5;" x1="8" x2="283.1182" y1="112.1875" y2="112.1875"/><g data-visibility-modifier="PUBLIC_METHOD"><ellipse cx="18" cy="125.8359" fill="#84BE84" rx="3" ry="3" style="stroke:#038048;stroke-width:1;"/></g><text fill="#000000" font-family="sans-serif" font-size="14" lengthAdjust="spacing" textLength="64.2168" x="27" y="129.1826">Acquire()</text><g data-visibility-modifier="PUBLIC_METHOD"><ellipse cx="18" cy="142.1328" fill="#84BE84" rx="3" ry="3" style="stroke:#038048;stroke-width:1;"/></g><text fill="#000000" font-family="sans-serif" font-size="14" lengthAdjust="spacing" textLength="251.1182" x="27" y="145.4795">Release(connection:IDbConnection)</text></g><?plantuml-src Kop9ICrDLIZBJ2fAp2lXuahEIImkLd3EpyjBJIx9pCyBoC_FKQZcqgqkBaaioKokpSm3ClAIKwrGbN3f5gNcf2OMfwPOUGQdbd3f9YONbcOMmRZQZX2kXYQNTX14eKOot00hJvSaX7509J3BF75OLWi0?></g></svg>