<svg xmlns="http://www.w3.org/2000/svg" xmlns:xlink="http://www.w3.org/1999/xlink" contentStyleType="text/css" data-diagram-type="CLASS" height="267px" preserveAspectRatio="none" style="width:510px;height:267px;background:#FFFFFF;" version="1.1" viewBox="0 0 510 267" width="510px" zoomAndPan="magnify"><?plantuml 1.2026.4beta2?><defs/><g><g class="entity" data-qualified-name="Welcome" data-source-line="1" id="ent0002"><rect fill="#F1F1F1" height="36.2969" rx="2.5" ry="2.5" style="stroke:#181818;stroke-width:0.5;" width="78.8594" x="37.07" y="7"/><text fill="#000000" font-family="sans-serif" font-size="14" lengthAdjust="spacing" textLength="64.8594" x="44.07" y="21.9951">Welcome</text><line style="stroke:#181818;stroke-width:0.5;" x1="38.07" x2="114.9294" y1="27.2969" y2="27.2969"/></g><g class="entity" data-qualified-name="LicenseKeyEntry" data-source-line="2" id="ent0003"><rect fill="#F1F1F1" height="36.2969" rx="2.5" ry="2.5" style="stroke:#181818;stroke-width:0.5;" width="139.0088" x="7" y="104.3"/><text fill="#000000" font-family="sans-serif" font-size="14" lengthAdjust="spacing" textLength="125.0088" x="14" y="119.2951">License Key Entry</text><line style="stroke:#181818;stroke-width:0.5;" x1="8" x2="145.0088" y1="124.5969" y2="124.5969"/></g><g class="entity" data-qualified-name="RegistrationForm" data-source-line="4" id="ent0004"><rect fill="#F1F1F1" height="36.2969" rx="2.5" ry="2.5" style="stroke:#181818;stroke-width:0.5;" width="139.5146" x="213.75" y="104.3"/><text fill="#000000" font-family="sans-serif" font-size="14" lengthAdjust="spacing" textLength="125.5146" x="220.75" y="119.2951">Registration Form</text><line style="stroke:#181818;stroke-width:0.5;" x1="214.75" x2="352.2646" y1="124.5969" y2="124.5969"/></g><g class="entity" data-qualified-name="Review" data-source-line="5" id="ent0005"><rect fill="#F1F1F1" height="36.2969" rx="2.5" ry="2.5" style="stroke:#181818;stroke-width:0.5;" width="64.5791" x="251.21" y="217.59"/><text fill="#000000" font-family="sans-serif" font-size="14" lengthAdjust="spacing" textLength="50.5791" x="258.21" y="232.5851">Review</text><line style="stroke:#181818;stroke-width:0.5;" x1="252.21" x2="314.7891" y1="237.8869" y2="237.8869"/></g><g class="entity" data-qualified-name="Completed" data-source-line="6" id="ent0006"><rect fill="#F1F1F1" height="36.2969" rx="2.5" ry="2.5" style="stroke:#181818;stroke-width:0.5;" width="90.3574" x="406.33" y="217.59"/><text fill="#000000" font-family="sans-serif" font-size="14" lengthAdjust="spacing" textLength="76.3574" x="413.33" y="232.5851">Completed</text><line style="stroke:#181818;stroke-width:0.5;" x1="407.33" x2="495.6874" y1="237.8869" y2="237.8869"/></g><!--link Welcome to LicenseKeyEntry--><g class="link" data-entity-1="ent0002" data-entity-2="ent0003" data-link-type="dependency" data-source-line="8" id="lnk7"><path codeLine="8" d="M76.5,43.63 C76.5,60.82 76.5,80.92 76.5,98.08" fill="none" id="Welcome-to-LicenseKeyEntry" style="stroke:#181818;stroke-width:1;"/><polygon fill="#181818" points="76.5,104.08,80.5,95.08,76.5,99.08,72.5,95.08,76.5,104.08" style="stroke:#181818;stroke-width:1;"/></g><!--link LicenseKeyEntry to RegistrationForm--><g class="link" data-entity-1="ent0003" data-entity-2="ent0004" data-link-type="dependency" data-source-line="10" id="lnk8"><path codeLine="10" d="M146.37,139.89 C152.26,140.92 158.16,141.8 163.88,142.44 C179.99,144.27 191.2945,144.0572 207.5345,141.6572" fill="none" id="LicenseKeyEntry-to-RegistrationForm" style="stroke:#181818;stroke-width:1;"/><polygon fill="#181818" points="213.47,140.78,203.9819,138.1387,208.5237,141.511,205.1515,146.0528,213.47,140.78" style="stroke:#181818;stroke-width:1;"/><text fill="#000000" font-family="sans-serif" font-size="13" lengthAdjust="spacing" textLength="30.5132" x="164.88" y="138.5069">Next</text></g><!--reverse link LicenseKeyEntry to RegistrationForm--><g class="link" data-entity-1="ent0003" data-entity-2="ent0004" data-link-type="dependency" data-source-line="11" id="lnk10"><path codeLine="11" d="M152.3,122.44 C173.89,122.44 191.69,122.44 213.31,122.44" fill="none" id="LicenseKeyEntry-backto-RegistrationForm" style="stroke:#181818;stroke-width:1;"/><polygon fill="#181818" points="146.3,122.44,155.3,126.44,151.3,122.44,155.3,118.44,146.3,122.44" style="stroke:#181818;stroke-width:1;"/><text fill="#000000" font-family="sans-serif" font-size="13" lengthAdjust="spacing" textLength="31.5605" x="164.38" y="115.5069">Back</text></g><!--link RegistrationForm to Review--><g class="link" data-entity-1="ent0004" data-entity-2="ent0005" data-link-type="dependency" data-source-line="13" id="lnk11"><path codeLine="13" d="M264.19,140.79 C256.5,148.97 248.53,159.4 244.5,170.59 C238.41,187.52 246.012,200.553 258.192,212.933" fill="none" id="RegistrationForm-to-Review" style="stroke:#181818;stroke-width:1;"/><polygon fill="#181818" points="262.4,217.21,258.9394,207.9891,258.8934,213.6458,253.2367,213.5997,262.4,217.21" style="stroke:#181818;stroke-width:1;"/><text fill="#000000" font-family="sans-serif" font-size="13" lengthAdjust="spacing" textLength="30.5132" x="245.5" y="183.6569">Next</text></g><!--reverse link RegistrationForm to Review--><g class="link" data-entity-1="ent0004" data-entity-2="ent0005" data-link-type="dependency" data-source-line="14" id="lnk13"><path codeLine="14" d="M283.5,146.83 C283.5,167.62 283.5,196.21 283.5,217.11" fill="none" id="RegistrationForm-backto-Review" style="stroke:#181818;stroke-width:1;"/><polygon fill="#181818" points="283.5,140.83,279.5,149.83,283.5,145.83,287.5,149.83,283.5,140.83" style="stroke:#181818;stroke-width:1;"/><text fill="#000000" font-family="sans-serif" font-size="13" lengthAdjust="spacing" textLength="31.5605" x="284.5" y="183.6569">Back</text></g><!--link Review to Completed--><g class="link" data-entity-1="ent0005" data-entity-2="ent0006" data-link-type="dependency" data-source-line="16" id="lnk14"><path codeLine="16" d="M315.9,235.74 C341.45,235.74 371.41,235.74 399.88,235.74" fill="none" id="Review-to-Completed" style="stroke:#181818;stroke-width:1;"/><polygon fill="#181818" points="405.88,235.74,396.88,231.74,400.88,235.74,396.88,239.74,405.88,235.74" style="stroke:#181818;stroke-width:1;"/><text fill="#000000" font-family="sans-serif" font-size="13" lengthAdjust="spacing" textLength="54.1074" x="334.06" y="228.8069">Register</text></g><?plantuml-src ROyn4e8m44Nxd6A7FXUmeD3HHiU2nXh35wEGC64HkRsHW3X0-LzUzk_QwmEAwO92sHB2XXYTj8AfGKTqj3VikeZIcWRgOS_4Jq-GwvfTojeQEbXNzle__S9HJ_3IQCUqisLLW949CMn1ChEjaV6oRmP8EftVsPlpAjhG6MyM2ouBt7WvsllRL3t5oeTXbx3qDBTFigdMoyTXmOgd8_rRqE4-?></g></svg>