<svg xmlns="http://www.w3.org/2000/svg" xmlns:xlink="http://www.w3.org/1999/xlink" contentStyleType="text/css" data-diagram-type="CLASS" height="351px" preserveAspectRatio="none" style="width:412px;height:351px;background:#FFFFFF;" version="1.1" viewBox="0 0 412 351" width="412px" zoomAndPan="magnify"><?plantuml 1.2026.4beta2?><defs/><g><!--class Playlist--><g class="entity" data-qualified-name="Playlist" data-source-line="3" id="ent0002"><rect fill="#F1F1F1" height="64.2969" rx="3.5" ry="3.5" style="stroke:#181818;stroke-width:0.5;" width="107.8467" x="136.98" y="7"/><ellipse cx="163.7196" cy="23" fill="#ADD1B2" rx="11" ry="11" style="stroke:#181818;stroke-width:1;"/><path d="M166.6883,28.6406 Q166.1102,28.9375 165.4696,29.0781 Q164.8289,29.2344 164.1258,29.2344 Q161.6258,29.2344 160.2977,27.5938 Q158.9852,25.9375 158.9852,22.8125 Q158.9852,19.6875 160.2977,18.0313 Q161.6258,16.375 164.1258,16.375 Q164.8289,16.375 165.4696,16.5313 Q166.1258,16.6875 166.6883,16.9844 L166.6883,19.7031 Q166.0633,19.125 165.4696,18.8594 Q164.8758,18.5781 164.2508,18.5781 Q162.9071,18.5781 162.2196,19.6563 Q161.5321,20.7188 161.5321,22.8125 Q161.5321,24.9063 162.2196,25.9844 Q162.9071,27.0469 164.2508,27.0469 Q164.8758,27.0469 165.4696,26.7813 Q166.0633,26.5 166.6883,25.9219 L166.6883,28.6406 Z " fill="#000000"/><text fill="#000000" font-family="sans-serif" font-size="14" lengthAdjust="spacing" textLength="49.7588" x="180.3283" y="27.8467">Playlist</text><line style="stroke:#181818;stroke-width:0.5;" x1="137.98" x2="243.8267" y1="39" y2="39"/><line style="stroke:#181818;stroke-width:0.5;" x1="137.98" x2="243.8267" y1="47" y2="47"/><g data-visibility-modifier="PUBLIC_METHOD"><ellipse cx="147.98" cy="60.6484" fill="#84BE84" rx="3" ry="3" style="stroke:#038048;stroke-width:1;"/></g><text fill="#000000" font-family="sans-serif" font-size="14" lengthAdjust="spacing" textLength="81.8467" x="156.98" y="63.9951">PlayAsync()</text></g><!--class IPlaylistImpl--><g class="entity" data-qualified-name="IPlaylistImpl" data-source-line="7" id="ent0003"><rect fill="#F1F1F1" height="96.8906" rx="3.5" ry="3.5" style="stroke:#181818;stroke-width:0.5;" width="116.4307" x="132.69" y="131.3"/><ellipse cx="147.69" cy="147.3" fill="#B4A7E5" rx="11" ry="11" style="stroke:#181818;stroke-width:1;"/><path d="M143.6119,143.0656 L143.6119,140.9094 L151.0025,140.9094 L151.0025,143.0656 L148.5338,143.0656 L148.5338,151.1438 L151.0025,151.1438 L151.0025,153.3 L143.6119,153.3 L143.6119,151.1438 L146.0806,151.1438 L146.0806,143.0656 L143.6119,143.0656 Z " fill="#000000"/><text fill="#000000" font-family="sans-serif" font-size="14" font-style="italic" lengthAdjust="spacing" textLength="84.4307" x="161.69" y="152.1467">IPlaylistImpl</text><line style="stroke:#181818;stroke-width:0.5;" x1="133.69" x2="248.1207" y1="163.3" y2="163.3"/><line style="stroke:#181818;stroke-width:0.5;" x1="133.69" x2="248.1207" y1="171.3" y2="171.3"/><g data-visibility-modifier="PUBLIC_METHOD"><ellipse cx="143.69" cy="184.9484" fill="#84BE84" rx="3" ry="3" style="stroke:#038048;stroke-width:1;"/></g><text fill="#000000" font-family="sans-serif" font-size="14" lengthAdjust="spacing" textLength="67.4912" x="152.69" y="188.2951">IsEmpty()</text><g data-visibility-modifier="PUBLIC_METHOD"><ellipse cx="143.69" cy="201.2453" fill="#84BE84" rx="3" ry="3" style="stroke:#038048;stroke-width:1;"/></g><text fill="#000000" font-family="sans-serif" font-size="14" lengthAdjust="spacing" textLength="43.7842" x="152.69" y="204.592">Next()</text><g data-visibility-modifier="PUBLIC_METHOD"><ellipse cx="143.69" cy="217.5422" fill="#84BE84" rx="3" ry="3" style="stroke:#038048;stroke-width:1;"/></g><text fill="#000000" font-family="sans-serif" font-size="14" lengthAdjust="spacing" textLength="50.6611" x="152.69" y="220.8889">Reset()</text></g><!--class Client--><g class="entity" data-qualified-name="Client" data-source-line="15" id="ent0005"><rect fill="#98FB98" height="48" rx="3.5" ry="3.5" style="stroke:#181818;stroke-width:0.5;" width="72.5303" x="279.64" y="15.15"/><ellipse cx="294.64" cy="31.15" fill="#ADD1B2" rx="11" ry="11" style="stroke:#181818;stroke-width:1;"/><path d="M297.6088,36.7906 Q297.0306,37.0875 296.39,37.2281 Q295.7494,37.3844 295.0463,37.3844 Q292.5463,37.3844 291.2181,35.7437 Q289.9056,34.0875 289.9056,30.9625 Q289.9056,27.8375 291.2181,26.1812 Q292.5463,24.525 295.0463,24.525 Q295.7494,24.525 296.39,24.6812 Q297.0463,24.8375 297.6088,25.1344 L297.6088,27.8531 Q296.9838,27.275 296.39,27.0094 Q295.7963,26.7281 295.1713,26.7281 Q293.8275,26.7281 293.14,27.8062 Q292.4525,28.8687 292.4525,30.9625 Q292.4525,33.0562 293.14,34.1344 Q293.8275,35.1969 295.1713,35.1969 Q295.7963,35.1969 296.39,34.9312 Q296.9838,34.65 297.6088,34.0719 L297.6088,36.7906 Z " fill="#000000"/><text fill="#000000" font-family="sans-serif" font-size="14" lengthAdjust="spacing" textLength="40.5303" x="308.64" y="35.9967">Client</text><line style="stroke:#181818;stroke-width:0.5;" x1="280.64" x2="351.1703" y1="47.15" y2="47.15"/><line style="stroke:#181818;stroke-width:0.5;" x1="280.64" x2="351.1703" y1="55.15" y2="55.15"/></g><!--class LinearPlaylistImpl--><g class="entity" data-qualified-name="LinearPlaylistImpl" data-source-line="19" id="ent0008"><rect fill="#F1F1F1" height="48" rx="3.5" ry="3.5" style="stroke:#181818;stroke-width:0.5;" width="155.8125" x="7" y="288.19"/><ellipse cx="22" cy="304.19" fill="#ADD1B2" rx="11" ry="11" style="stroke:#181818;stroke-width:1;"/><path d="M24.9688,309.8306 Q24.3906,310.1275 23.75,310.2681 Q23.1094,310.4244 22.4063,310.4244 Q19.9063,310.4244 18.5781,308.7838 Q17.2656,307.1275 17.2656,304.0025 Q17.2656,300.8775 18.5781,299.2213 Q19.9063,297.565 22.4063,297.565 Q23.1094,297.565 23.75,297.7213 Q24.4063,297.8775 24.9688,298.1744 L24.9688,300.8931 Q24.3438,300.315 23.75,300.0494 Q23.1563,299.7681 22.5313,299.7681 Q21.1875,299.7681 20.5,300.8463 Q19.8125,301.9088 19.8125,304.0025 Q19.8125,306.0963 20.5,307.1744 Q21.1875,308.2369 22.5313,308.2369 Q23.1563,308.2369 23.75,307.9713 Q24.3438,307.69 24.9688,307.1119 L24.9688,309.8306 Z " fill="#000000"/><text fill="#000000" font-family="sans-serif" font-size="14" lengthAdjust="spacing" textLength="123.8125" x="36" y="309.0367">LinearPlaylistImpl</text><line style="stroke:#181818;stroke-width:0.5;" x1="8" x2="161.8125" y1="320.19" y2="320.19"/><line style="stroke:#181818;stroke-width:0.5;" x1="8" x2="161.8125" y1="328.19" y2="328.19"/></g><!--class RandomizedPlaylistImpl--><g class="entity" data-qualified-name="RandomizedPlaylistImpl" data-source-line="20" id="ent0011"><rect fill="#F1F1F1" height="48" rx="3.5" ry="3.5" style="stroke:#181818;stroke-width:0.5;" width="199.3096" x="198.25" y="288.19"/><ellipse cx="213.25" cy="304.19" fill="#ADD1B2" rx="11" ry="11" style="stroke:#181818;stroke-width:1;"/><path d="M216.2188,309.8306 Q215.6406,310.1275 215,310.2681 Q214.3594,310.4244 213.6563,310.4244 Q211.1563,310.4244 209.8281,308.7838 Q208.5156,307.1275 208.5156,304.0025 Q208.5156,300.8775 209.8281,299.2213 Q211.1563,297.565 213.6563,297.565 Q214.3594,297.565 215,297.7213 Q215.6563,297.8775 216.2188,298.1744 L216.2188,300.8931 Q215.5938,300.315 215,300.0494 Q214.4063,299.7681 213.7813,299.7681 Q212.4375,299.7681 211.75,300.8463 Q211.0625,301.9088 211.0625,304.0025 Q211.0625,306.0963 211.75,307.1744 Q212.4375,308.2369 213.7813,308.2369 Q214.4063,308.2369 215,307.9713 Q215.5938,307.69 216.2188,307.1119 L216.2188,309.8306 Z " fill="#000000"/><text fill="#000000" font-family="sans-serif" font-size="14" lengthAdjust="spacing" textLength="167.3096" x="227.25" y="309.0367">RandomizedPlaylistImpl</text><line style="stroke:#181818;stroke-width:0.5;" x1="199.25" x2="396.5596" y1="320.19" y2="320.19"/><line style="stroke:#181818;stroke-width:0.5;" x1="199.25" x2="396.5596" y1="328.19" y2="328.19"/></g><!--link Playlist to IPlaylistImpl--><g class="link" data-entity-1="ent0002" data-entity-2="ent0003" data-link-type="aggregation" data-source-line="13" id="lnk4"><path codeLine="13" d="M190.91,83.6 C190.91,101.09 190.91,105.22 190.91,124.82" fill="none" id="Playlist-IPlaylistImpl" style="stroke:#454645;stroke-width:1;"/><polygon fill="none" points="190.91,71.6,186.91,77.6,190.91,83.6,194.91,77.6,190.91,71.6" style="stroke:#454645;stroke-width:1;"/><polygon fill="#454645" points="190.91,130.82,194.91,121.82,190.91,125.82,186.91,121.82,190.91,130.82" style="stroke:#454645;stroke-width:1;"/></g><!--reverse link Playlist to Client--><g class="link" data-entity-1="ent0002" data-entity-2="ent0005" data-link-type="dependency" data-source-line="17" id="lnk7"><path codeLine="17" d="M251.11,39.15 C262.54,39.15 267.97,39.15 279.4,39.15" fill="none" id="Playlist-backto-Client" style="stroke:#454645;stroke-width:1;"/><polygon fill="#454645" points="245.11,39.15,254.11,43.15,250.11,39.15,254.11,35.15,245.11,39.15" style="stroke:#454645;stroke-width:1;"/></g><!--reverse link IPlaylistImpl to LinearPlaylistImpl--><g class="link" data-entity-1="ent0003" data-entity-2="ent0008" data-link-type="extension" data-source-line="19" id="lnk10"><path codeLine="19" d="M140.6854,242.5469 C124.2554,262.7569 117.23,271.41 103.86,287.86" fill="none" id="IPlaylistImpl-backto-LinearPlaylistImpl" style="stroke:#454645;stroke-width:1;stroke-dasharray:7,7;"/><polygon fill="none" points="152.04,228.58,136.0298,238.762,145.3411,246.3317,152.04,228.58" style="stroke:#454645;stroke-width:1;"/></g><!--reverse link IPlaylistImpl to RandomizedPlaylistImpl--><g class="link" data-entity-1="ent0003" data-entity-2="ent0011" data-link-type="extension" data-source-line="20" id="lnk13"><path codeLine="20" d="M241.5566,242.4962 C258.1366,262.7062 265.28,271.41 278.77,287.86" fill="none" id="IPlaylistImpl-backto-RandomizedPlaylistImpl" style="stroke:#454645;stroke-width:1;stroke-dasharray:7,7;"/><polygon fill="none" points="230.14,228.58,236.9179,246.3017,246.1954,238.6906,230.14,228.58" style="stroke:#454645;stroke-width:1;"/></g><?plantuml-src XOxB2i9034Nt-OeHDqffFq4GSL4GaVv1R5CToAJ3J7pKnx_ReXNgnbL2EEVcJlH8ZipPxWEA0fICCPeTOyisghb3qk_Bs4evcyCJm8fIgB4aamzKxZptP1xNpclRSScMhjhFWYBfM_ncDcdLN2HTZ0E6roks96gc7faEWKW0FgUKgTPE6oo0ZHN2CAgHdNps-8qkKAh6sHjLVzaN?></g></svg>