<svg xmlns="http://www.w3.org/2000/svg" xmlns:xlink="http://www.w3.org/1999/xlink" contentStyleType="text/css" data-diagram-type="CLASS" height="445px" preserveAspectRatio="none" style="width:412px;height:445px;background:#FFFFFF;" version="1.1" viewBox="0 0 412 445" width="412px" zoomAndPan="magnify"><?plantuml 1.2026.4beta2?><defs/><g><!--class IFileWriterFactory--><g class="entity" data-qualified-name="IFileWriterFactory" data-source-line="3" id="ent0002"><rect fill="#F1F1F1" height="64.2969" rx="3.5" ry="3.5" style="stroke:#181818;stroke-width:0.5;" width="156.3457" x="102.97" y="116"/><ellipse cx="117.97" cy="132" fill="#B4A7E5" rx="11" ry="11" style="stroke:#181818;stroke-width:1;"/><path d="M113.8919,127.7656 L113.8919,125.6094 L121.2825,125.6094 L121.2825,127.7656 L118.8138,127.7656 L118.8138,135.8438 L121.2825,135.8438 L121.2825,138 L113.8919,138 L113.8919,135.8438 L116.3606,135.8438 L116.3606,127.7656 L113.8919,127.7656 Z " fill="#000000"/><text fill="#000000" font-family="sans-serif" font-size="14" font-style="italic" lengthAdjust="spacing" textLength="124.3457" x="131.97" y="136.8467">IFileWriterFactory</text><line style="stroke:#181818;stroke-width:0.5;" x1="103.97" x2="258.3157" y1="148" y2="148"/><line style="stroke:#181818;stroke-width:0.5;" x1="103.97" x2="258.3157" y1="156" y2="156"/><g data-visibility-modifier="PUBLIC_METHOD"><ellipse cx="113.97" cy="169.6484" fill="#84BE84" rx="3" ry="3" style="stroke:#038048;stroke-width:1;"/></g><text fill="#000000" font-family="sans-serif" font-size="14" lengthAdjust="spacing" textLength="57.75" x="122.97" y="172.9951">Create()</text></g><!--class IFileWriter--><g class="entity" data-qualified-name="IFileWriter" data-source-line="7" id="ent0003"><rect fill="#F1F1F1" height="64.2969" rx="3.5" ry="3.5" style="stroke:#181818;stroke-width:0.5;" width="269.3936" x="46.45" y="257.29"/><ellipse cx="140.9363" cy="273.29" fill="#B4A7E5" rx="11" ry="11" style="stroke:#181818;stroke-width:1;"/><path d="M136.8582,269.0556 L136.8582,266.8994 L144.2488,266.8994 L144.2488,269.0556 L141.7801,269.0556 L141.7801,277.1337 L144.2488,277.1337 L144.2488,279.29 L136.8582,279.29 L136.8582,277.1337 L139.327,277.1337 L139.327,269.0556 L136.8582,269.0556 Z " fill="#000000"/><text fill="#000000" font-family="sans-serif" font-size="14" font-style="italic" lengthAdjust="spacing" textLength="71.9209" x="161.4363" y="278.1367">IFileWriter</text><line style="stroke:#181818;stroke-width:0.5;" x1="47.45" x2="314.8436" y1="289.29" y2="289.29"/><line style="stroke:#181818;stroke-width:0.5;" x1="47.45" x2="314.8436" y1="297.29" y2="297.29"/><g data-visibility-modifier="PUBLIC_METHOD"><ellipse cx="57.45" cy="310.9384" fill="#84BE84" rx="3" ry="3" style="stroke:#038048;stroke-width:1;"/></g><text fill="#000000" font-family="sans-serif" font-size="14" lengthAdjust="spacing" textLength="243.3936" x="66.45" y="314.2851">Write(data:byte[], fileName:string)</text></g><!--class JpegWriter--><g class="entity" data-qualified-name="JpegWriter" data-source-line="13" id="ent0005"><rect fill="#F1F1F1" height="48" rx="3.5" ry="3.5" style="stroke:#181818;stroke-width:0.5;" width="105.8623" x="59.21" y="382.59"/><ellipse cx="74.21" cy="398.59" fill="#ADD1B2" rx="11" ry="11" style="stroke:#181818;stroke-width:1;"/><path d="M77.1788,404.2306 Q76.6006,404.5275 75.96,404.6681 Q75.3194,404.8244 74.6163,404.8244 Q72.1163,404.8244 70.7881,403.1838 Q69.4756,401.5275 69.4756,398.4025 Q69.4756,395.2775 70.7881,393.6213 Q72.1163,391.965 74.6163,391.965 Q75.3194,391.965 75.96,392.1213 Q76.6163,392.2775 77.1788,392.5744 L77.1788,395.2931 Q76.5538,394.715 75.96,394.4494 Q75.3663,394.1681 74.7413,394.1681 Q73.3975,394.1681 72.71,395.2463 Q72.0225,396.3088 72.0225,398.4025 Q72.0225,400.4963 72.71,401.5744 Q73.3975,402.6369 74.7413,402.6369 Q75.3663,402.6369 75.96,402.3713 Q76.5538,402.09 77.1788,401.5119 L77.1788,404.2306 Z " fill="#000000"/><text fill="#000000" font-family="sans-serif" font-size="14" lengthAdjust="spacing" textLength="73.8623" x="88.21" y="403.4367">JpegWriter</text><line style="stroke:#181818;stroke-width:0.5;" x1="60.21" x2="164.0723" y1="414.59" y2="414.59"/><line style="stroke:#181818;stroke-width:0.5;" x1="60.21" x2="164.0723" y1="422.59" y2="422.59"/></g><!--class PngWriter--><g class="entity" data-qualified-name="PngWriter" data-source-line="14" id="ent0008"><rect fill="#F1F1F1" height="48" rx="3.5" ry="3.5" style="stroke:#181818;stroke-width:0.5;" width="101.5488" x="200.37" y="382.59"/><ellipse cx="215.37" cy="398.59" fill="#ADD1B2" rx="11" ry="11" style="stroke:#181818;stroke-width:1;"/><path d="M218.3388,404.2306 Q217.7606,404.5275 217.12,404.6681 Q216.4794,404.8244 215.7763,404.8244 Q213.2763,404.8244 211.9481,403.1838 Q210.6356,401.5275 210.6356,398.4025 Q210.6356,395.2775 211.9481,393.6213 Q213.2763,391.965 215.7763,391.965 Q216.4794,391.965 217.12,392.1213 Q217.7763,392.2775 218.3388,392.5744 L218.3388,395.2931 Q217.7138,394.715 217.12,394.4494 Q216.5263,394.1681 215.9013,394.1681 Q214.5575,394.1681 213.87,395.2463 Q213.1825,396.3088 213.1825,398.4025 Q213.1825,400.4963 213.87,401.5744 Q214.5575,402.6369 215.9013,402.6369 Q216.5263,402.6369 217.12,402.3713 Q217.7138,402.09 218.3388,401.5119 L218.3388,404.2306 Z " fill="#000000"/><text fill="#000000" font-family="sans-serif" font-size="14" lengthAdjust="spacing" textLength="69.5488" x="229.37" y="403.4367">PngWriter</text><line style="stroke:#181818;stroke-width:0.5;" x1="201.37" x2="300.9188" y1="414.59" y2="414.59"/><line style="stroke:#181818;stroke-width:0.5;" x1="201.37" x2="300.9188" y1="422.59" y2="422.59"/></g><!--class JpegWriterFactory--><g class="entity" data-qualified-name="JpegWriterFactory" data-source-line="16" id="ent0011"><rect fill="#F1F1F1" height="48" rx="3.5" ry="3.5" style="stroke:#181818;stroke-width:0.5;" width="158.2871" x="7" y="7"/><ellipse cx="22" cy="23" fill="#ADD1B2" rx="11" ry="11" style="stroke:#181818;stroke-width:1;"/><path d="M24.9688,28.6406 Q24.3906,28.9375 23.75,29.0781 Q23.1094,29.2344 22.4063,29.2344 Q19.9063,29.2344 18.5781,27.5938 Q17.2656,25.9375 17.2656,22.8125 Q17.2656,19.6875 18.5781,18.0313 Q19.9063,16.375 22.4063,16.375 Q23.1094,16.375 23.75,16.5313 Q24.4063,16.6875 24.9688,16.9844 L24.9688,19.7031 Q24.3438,19.125 23.75,18.8594 Q23.1563,18.5781 22.5313,18.5781 Q21.1875,18.5781 20.5,19.6563 Q19.8125,20.7188 19.8125,22.8125 Q19.8125,24.9063 20.5,25.9844 Q21.1875,27.0469 22.5313,27.0469 Q23.1563,27.0469 23.75,26.7813 Q24.3438,26.5 24.9688,25.9219 L24.9688,28.6406 Z " fill="#000000"/><text fill="#000000" font-family="sans-serif" font-size="14" lengthAdjust="spacing" textLength="126.2871" x="36" y="27.8467">JpegWriterFactory</text><line style="stroke:#181818;stroke-width:0.5;" x1="8" x2="164.2871" y1="39" y2="39"/><line style="stroke:#181818;stroke-width:0.5;" x1="8" x2="164.2871" y1="47" y2="47"/></g><!--class PngWriterFactory--><g class="entity" data-qualified-name="PngWriterFactory" data-source-line="17" id="ent0013"><rect fill="#F1F1F1" height="48" rx="3.5" ry="3.5" style="stroke:#181818;stroke-width:0.5;" width="153.9736" x="200.16" y="7"/><ellipse cx="215.16" cy="23" fill="#ADD1B2" rx="11" ry="11" style="stroke:#181818;stroke-width:1;"/><path d="M218.1288,28.6406 Q217.5506,28.9375 216.91,29.0781 Q216.2694,29.2344 215.5663,29.2344 Q213.0663,29.2344 211.7381,27.5938 Q210.4256,25.9375 210.4256,22.8125 Q210.4256,19.6875 211.7381,18.0313 Q213.0663,16.375 215.5663,16.375 Q216.2694,16.375 216.91,16.5313 Q217.5663,16.6875 218.1288,16.9844 L218.1288,19.7031 Q217.5038,19.125 216.91,18.8594 Q216.3163,18.5781 215.6913,18.5781 Q214.3475,18.5781 213.66,19.6563 Q212.9725,20.7188 212.9725,22.8125 Q212.9725,24.9063 213.66,25.9844 Q214.3475,27.0469 215.6913,27.0469 Q216.3163,27.0469 216.91,26.7813 Q217.5038,26.5 218.1288,25.9219 L218.1288,28.6406 Z " fill="#000000"/><text fill="#000000" font-family="sans-serif" font-size="14" lengthAdjust="spacing" textLength="121.9736" x="229.16" y="27.8467">PngWriterFactory</text><line style="stroke:#181818;stroke-width:0.5;" x1="201.16" x2="353.1336" y1="39" y2="39"/><line style="stroke:#181818;stroke-width:0.5;" x1="201.16" x2="353.1336" y1="47" y2="47"/></g><!--class Client--><g class="entity" data-qualified-name="Client" data-source-line="19" id="ent0015"><rect fill="#98FB98" height="48" rx="3.5" ry="3.5" style="stroke:#181818;stroke-width:0.5;" width="72.5303" x="324.88" y="124.14"/><ellipse cx="339.88" cy="140.14" fill="#ADD1B2" rx="11" ry="11" style="stroke:#181818;stroke-width:1;"/><path d="M342.8488,145.7806 Q342.2706,146.0775 341.63,146.2181 Q340.9894,146.3744 340.2863,146.3744 Q337.7863,146.3744 336.4581,144.7338 Q335.1456,143.0775 335.1456,139.9525 Q335.1456,136.8275 336.4581,135.1713 Q337.7863,133.515 340.2863,133.515 Q340.9894,133.515 341.63,133.6713 Q342.2863,133.8275 342.8488,134.1244 L342.8488,136.8431 Q342.2238,136.265 341.63,135.9994 Q341.0363,135.7181 340.4113,135.7181 Q339.0675,135.7181 338.38,136.7963 Q337.6925,137.8588 337.6925,139.9525 Q337.6925,142.0463 338.38,143.1244 Q339.0675,144.1869 340.4113,144.1869 Q341.0363,144.1869 341.63,143.9213 Q342.2238,143.64 342.8488,143.0619 L342.8488,145.7806 Z " fill="#000000"/><text fill="#000000" font-family="sans-serif" font-size="14" lengthAdjust="spacing" textLength="40.5303" x="353.88" y="144.9867">Client</text><line style="stroke:#181818;stroke-width:0.5;" x1="325.88" x2="396.4103" y1="156.14" y2="156.14"/><line style="stroke:#181818;stroke-width:0.5;" x1="325.88" x2="396.4103" y1="164.14" y2="164.14"/></g><!--link IFileWriterFactory to IFileWriter--><g class="link" data-entity-1="ent0002" data-entity-2="ent0003" data-link-type="dependency" data-source-line="11" id="lnk4"><path codeLine="11" d="M181.14,180.75 C181.14,203.55 181.14,228.19 181.14,250.96" fill="none" id="IFileWriterFactory-to-IFileWriter" style="stroke:#454645;stroke-width:1;stroke-dasharray:7,7;"/><polygon fill="#454645" points="181.14,256.96,185.14,247.96,181.14,251.96,177.14,247.96,181.14,256.96" style="stroke:#454645;stroke-width:1;"/><text fill="#000000" font-family="sans-serif" font-size="13" lengthAdjust="spacing" textLength="48.3247" x="182.14" y="223.3569">creates</text></g><!--reverse link IFileWriter to JpegWriter--><g class="link" data-entity-1="ent0003" data-entity-2="ent0005" data-link-type="extension" data-source-line="13" id="lnk7"><path codeLine="13" d="M153.0374,337.3499 C141.6274,356.3899 136.57,364.83 126.16,382.2" fill="none" id="IFileWriter-backto-JpegWriter" style="stroke:#454645;stroke-width:1;stroke-dasharray:7,7;"/><polygon fill="none" points="162.29,321.91,147.8908,334.2657,158.1841,340.4341,162.29,321.91" style="stroke:#454645;stroke-width:1;"/></g><!--reverse link IFileWriter to PngWriter--><g class="link" data-entity-1="ent0003" data-entity-2="ent0008" data-link-type="extension" data-source-line="14" id="lnk10"><path codeLine="14" d="M209.6234,337.289 C221.2034,356.329 226.37,364.83 236.93,382.2" fill="none" id="IFileWriter-backto-PngWriter" style="stroke:#454645;stroke-width:1;stroke-dasharray:7,7;"/><polygon fill="none" points="200.27,321.91,204.4971,340.4068,214.7497,334.1712,200.27,321.91" style="stroke:#454645;stroke-width:1;"/></g><!--link JpegWriterFactory to IFileWriterFactory--><g class="link" data-entity-1="ent0011" data-entity-2="ent0002" data-link-type="extension" data-source-line="16" id="lnk12"><path codeLine="16" d="M105.37,55.3 C119.68,72.65 127.9227,82.6372 143.6527,101.6972" fill="none" id="JpegWriterFactory-to-IFileWriterFactory" style="stroke:#454645;stroke-width:1;stroke-dasharray:7,7;"/><polygon fill="none" points="155.11,115.58,148.2803,97.8782,139.0251,105.5163,155.11,115.58" style="stroke:#454645;stroke-width:1;"/></g><!--link PngWriterFactory to IFileWriterFactory--><g class="link" data-entity-1="ent0013" data-entity-2="ent0002" data-link-type="extension" data-source-line="17" id="lnk14"><path codeLine="17" d="M257.72,55.3 C243.25,72.65 234.8762,82.6944 218.9862,101.7544" fill="none" id="PngWriterFactory-to-IFileWriterFactory" style="stroke:#454645;stroke-width:1;stroke-dasharray:7,7;"/><polygon fill="none" points="207.46,115.58,223.5947,105.5965,214.3776,97.9123,207.46,115.58" style="stroke:#454645;stroke-width:1;"/></g><!--reverse link IFileWriterFactory to Client--><g class="link" data-entity-1="ent0002" data-entity-2="ent0015" data-link-type="dependency" data-source-line="21" id="lnk17"><path codeLine="21" d="M265.57,148.14 C288.12,148.14 305.65,148.14 324.38,148.14" fill="none" id="IFileWriterFactory-backto-Client" style="stroke:#454645;stroke-width:1;"/><polygon fill="#454645" points="259.57,148.14,268.57,152.14,264.57,148.14,268.57,144.14,259.57,148.14" style="stroke:#454645;stroke-width:1;"/><text fill="#000000" font-family="sans-serif" font-size="13" lengthAdjust="spacing" textLength="29.7832" x="277.6" y="141.2069">uses</text></g><?plantuml-src ZOz12u9048NlyoiskXZb_W0FNeIW3j6jGtGOrz4MrbLsnqAg_vw8b8H5jvbvttkFcV6PIX8NdJgq3A0jayjHaTYijQ63qzs-HiMLQyKDbY9nX4p10XvVu9xgno13nYXjcOwdbSWxOeSbHPwTjaKVCD4XPJmEYuJg2pt0jgPYkCgcblTut0fx-qCSULyzMNMr7zoWlRF-WK4Pz5uaHfDbCQ_HKE68BC1m2Wtb74vvk-yQJ_u9?></g></svg>